<svg width="16" height="19" viewBox="0 0 16 19" fill="none" xmlns="http://www.w3.org/2000/svg">
<g filter="url(#filter0_d_514_11591)">
<path fill-rule="evenodd" clip-rule="evenodd" d="M4.21967 6.03033C3.92678 5.73744 3.92678 5.26256 4.21967 4.96967L7.46967 1.71967C7.76257 1.42678 8.23744 1.42678 8.53033 1.71967L11.7803 4.96967C12.0732 5.26256 12.0732 5.73744 11.7803 6.03033C11.4874 6.32322 11.0126 6.32322 10.7197 6.03033L8.75 4.06066V10.25C8.75 10.6642 8.41422 11 8 11C7.58579 11 7.25 10.6642 7.25 10.25V4.06066L5.28033 6.03033C4.98744 6.32322 4.51257 6.32322 4.21967 6.03033Z" fill="black"/>
</g>
<defs>
<filter id="filter0_d_514_11591" x="-2" y="0" width="20" height="20" filterUnits="userSpaceOnUse" color-interpolation-filters="sRGB">
<feFlood flood-opacity="0" result="BackgroundImageFix"/>
<feColorMatrix in="SourceAlpha" type="matrix" values="0 0 0 0 0 0 0 0 0 0 0 0 0 0 0 0 0 0 127 0" result="hardAlpha"/>
<feOffset dy="4"/>
<feGaussianBlur stdDeviation="2"/>
<feComposite in2="hardAlpha" operator="out"/>
<feColorMatrix type="matrix" values="0 0 0 0 0 0 0 0 0 0 0 0 0 0 0 0 0 0 0.25 0"/>
<feBlend mode="normal" in2="BackgroundImageFix" result="effect1_dropShadow_514_11591"/>
<feBlend mode="normal" in="SourceGraphic" in2="effect1_dropShadow_514_11591" result="shape"/>
</filter>
</defs>
</svg>
