<svg width="20" height="21" viewBox="0 0 20 21" fill="none" xmlns="http://www.w3.org/2000/svg">
<g filter="url(#filter0_d_238_8279)">
<path fill-rule="evenodd" clip-rule="evenodd" d="M9.96967 3.21967C10.2626 2.92678 10.7374 2.92678 11.0303 3.21967L15.2803 7.46967C15.5732 7.76256 15.5732 8.23744 15.2803 8.53033L11.0303 12.7803C10.7374 13.0732 10.2626 13.0732 9.96967 12.7803C9.67678 12.4874 9.67678 12.0126 9.96967 11.7197L12.9393 8.75H5.25C4.83579 8.75 4.5 8.41421 4.5 8C4.5 7.58579 4.83579 7.25 5.25 7.25H12.9393L9.96967 4.28033C9.67678 3.98744 9.67678 3.51256 9.96967 3.21967Z" fill="black"/>
</g>
<defs>
<filter id="filter0_d_238_8279" x="-2" y="0" width="24" height="24" filterUnits="userSpaceOnUse" color-interpolation-filters="sRGB">
<feFlood flood-opacity="0" result="BackgroundImageFix"/>
<feColorMatrix in="SourceAlpha" type="matrix" values="0 0 0 0 0 0 0 0 0 0 0 0 0 0 0 0 0 0 127 0" result="hardAlpha"/>
<feOffset dy="4"/>
<feGaussianBlur stdDeviation="2"/>
<feComposite in2="hardAlpha" operator="out"/>
<feColorMatrix type="matrix" values="0 0 0 0 0 0 0 0 0 0 0 0 0 0 0 0 0 0 0.25 0"/>
<feBlend mode="normal" in2="BackgroundImageFix" result="effect1_dropShadow_238_8279"/>
<feBlend mode="normal" in="SourceGraphic" in2="effect1_dropShadow_238_8279" result="shape"/>
</filter>
</defs>
</svg>
