<svg width="22" height="23" viewBox="0 0 22 23" fill="none" xmlns="http://www.w3.org/2000/svg">
<g filter="url(#filter0_d_501_10193)">
<path fill-rule="evenodd" clip-rule="evenodd" d="M11.2682 1.90805C11.4188 1.8591 11.5811 1.8591 11.7317 1.90805C11.7713 1.92091 11.8447 1.95434 12.0006 2.08664C12.1631 2.22462 12.3609 2.42164 12.6667 2.7274L15.2726 5.33329C15.5783 5.63905 15.7754 5.83689 15.9133 5.99943C16.0456 6.15528 16.0791 6.22867 16.0919 6.26825C16.1409 6.41889 16.1409 6.58115 16.0919 6.73178C16.0791 6.77136 16.0456 6.84476 15.9133 7.0006C15.7754 7.16314 15.5783 7.36098 15.2726 7.66674L14.6667 8.27263C14.3609 8.57839 14.1631 8.77541 14.0006 8.91339C13.8447 9.0457 13.7713 9.07913 13.7317 9.09199C13.5811 9.14093 13.4188 9.14093 13.2682 9.09199C13.2286 9.07913 13.1552 9.0457 12.9994 8.91339C12.8368 8.77541 12.639 8.57839 12.3332 8.27263L11.0303 6.96969L9.72736 5.66674C9.42159 5.36098 9.22458 5.16314 9.08659 5.0006C8.95429 4.84476 8.92086 4.77136 8.908 4.73178C8.85905 4.58115 8.85905 4.41889 8.908 4.26825C8.92086 4.22867 8.95429 4.15528 9.08659 3.99943C9.22458 3.8369 9.42159 3.63905 9.72736 3.33329L10.3332 2.7274C10.639 2.42164 10.8368 2.22462 10.9994 2.08664C11.1552 1.95434 11.2286 1.92091 11.2682 1.90805ZM12.1953 0.481461C11.7434 0.33463 11.2566 0.33463 10.8047 0.481461C10.5018 0.579882 10.2554 0.750597 10.0286 0.94313C9.81374 1.12555 9.57258 1.36673 9.29303 1.6463L9.29302 1.64631L9.27258 1.66674L8.6667 2.27263L8.64625 2.29307L8.64624 2.29308C8.36668 2.57263 8.1255 2.81379 7.94308 3.02867C7.75055 3.25546 7.57983 3.50182 7.48141 3.80473C7.33458 4.25663 7.33458 4.74341 7.48141 5.19531C7.57983 5.49822 7.75055 5.74457 7.94308 5.97137C8.1255 6.18624 8.36667 6.4274 8.64624 6.70695L8.64624 6.70695L8.6667 6.72741L9.43931 7.50002L4.21964 12.7197C3.92675 13.0126 3.92675 13.4875 4.21964 13.7803C4.51253 14.0732 4.98741 14.0732 5.2803 13.7803L10.5 8.56068L11.2726 9.33329L11.293 9.35374C11.5726 9.63331 11.8137 9.87449 12.0286 10.0569C12.2554 10.2494 12.5018 10.4202 12.8047 10.5186C13.2566 10.6654 13.7434 10.6654 14.1953 10.5186C14.4982 10.4202 14.7445 10.2494 14.9713 10.0569C15.1862 9.87449 15.4274 9.63331 15.7069 9.35373L15.7274 9.33329L16.3332 8.7274L16.3537 8.70695L16.3538 8.70689C16.6333 8.42737 16.8745 8.18623 17.0569 7.97137C17.2494 7.74457 17.4201 7.49822 17.5185 7.19531C17.6654 6.74341 17.6654 6.25663 17.5185 5.80473C17.4201 5.50182 17.2494 5.25546 17.0569 5.02867C16.8744 4.8138 16.6333 4.57265 16.3537 4.29311L16.3537 4.29307L16.3332 4.27263L13.7274 1.66674L13.7069 1.64629C13.4274 1.36672 13.1862 1.12554 12.9713 0.94313C12.7445 0.750597 12.4982 0.579882 12.1953 0.481461ZM10.75 13.5C10.3358 13.5 9.99999 13.8358 9.99999 14.25C9.99999 14.6642 10.3358 15 10.75 15H17.25C17.6642 15 18 14.6642 18 14.25C18 13.8358 17.6642 13.5 17.25 13.5H10.75Z" fill="black"/>
</g>
<defs>
<filter id="filter0_d_501_10193" x="-1" y="0" width="24" height="24" filterUnits="userSpaceOnUse" color-interpolation-filters="sRGB">
<feFlood flood-opacity="0" result="BackgroundImageFix"/>
<feColorMatrix in="SourceAlpha" type="matrix" values="0 0 0 0 0 0 0 0 0 0 0 0 0 0 0 0 0 0 127 0" result="hardAlpha"/>
<feOffset dy="4"/>
<feGaussianBlur stdDeviation="2"/>
<feComposite in2="hardAlpha" operator="out"/>
<feColorMatrix type="matrix" values="0 0 0 0 0 0 0 0 0 0 0 0 0 0 0 0 0 0 0.25 0"/>
<feBlend mode="normal" in2="BackgroundImageFix" result="effect1_dropShadow_501_10193"/>
<feBlend mode="normal" in="SourceGraphic" in2="effect1_dropShadow_501_10193" result="shape"/>
</filter>
</defs>
</svg>
