<svg width="16" height="19" viewBox="0 0 16 19" fill="none" xmlns="http://www.w3.org/2000/svg">
<g filter="url(#filter0_d_514_11590)">
<path fill-rule="evenodd" clip-rule="evenodd" d="M4.21967 5.96967C3.92678 6.26256 3.92678 6.73744 4.21967 7.03033L7.46967 10.2803C7.76256 10.5732 8.23744 10.5732 8.53033 10.2803L11.7803 7.03033C12.0732 6.73744 12.0732 6.26256 11.7803 5.96967C11.4874 5.67678 11.0126 5.67678 10.7197 5.96967L8.75 7.93934V1.75C8.75 1.33579 8.41421 1 8 1C7.58579 1 7.25 1.33579 7.25 1.75V7.93934L5.28033 5.96967C4.98744 5.67678 4.51256 5.67678 4.21967 5.96967Z" fill="black"/>
</g>
<defs>
<filter id="filter0_d_514_11590" x="-2" y="0" width="20" height="20" filterUnits="userSpaceOnUse" color-interpolation-filters="sRGB">
<feFlood flood-opacity="0" result="BackgroundImageFix"/>
<feColorMatrix in="SourceAlpha" type="matrix" values="0 0 0 0 0 0 0 0 0 0 0 0 0 0 0 0 0 0 127 0" result="hardAlpha"/>
<feOffset dy="4"/>
<feGaussianBlur stdDeviation="2"/>
<feComposite in2="hardAlpha" operator="out"/>
<feColorMatrix type="matrix" values="0 0 0 0 0 0 0 0 0 0 0 0 0 0 0 0 0 0 0.25 0"/>
<feBlend mode="normal" in2="BackgroundImageFix" result="effect1_dropShadow_514_11590"/>
<feBlend mode="normal" in="SourceGraphic" in2="effect1_dropShadow_514_11590" result="shape"/>
</filter>
</defs>
</svg>
