<svg width="18" height="22" viewBox="0 0 18 22" fill="none" xmlns="http://www.w3.org/2000/svg">
<g filter="url(#filter0_d_500_10788)">
<path fill-rule="evenodd" clip-rule="evenodd" d="M13.7803 8.46967C14.0732 8.76256 14.0732 9.23744 13.7803 9.53033L9.53033 13.7803C9.23744 14.0732 8.76256 14.0732 8.46967 13.7803L4.21967 9.53033C3.92678 9.23744 3.92678 8.76256 4.21967 8.46967C4.51256 8.17678 4.98744 8.17678 5.28033 8.46967L8.25 11.4393V2.75C8.25 2.33579 8.58579 2 9 2C9.41421 2 9.75 2.33579 9.75 2.75V11.4393L12.7197 8.46967C13.0126 8.17678 13.4874 8.17678 13.7803 8.46967Z" fill="black"/>
</g>
<defs>
<filter id="filter0_d_500_10788" x="-3" y="0" width="24" height="24" filterUnits="userSpaceOnUse" color-interpolation-filters="sRGB">
<feFlood flood-opacity="0" result="BackgroundImageFix"/>
<feColorMatrix in="SourceAlpha" type="matrix" values="0 0 0 0 0 0 0 0 0 0 0 0 0 0 0 0 0 0 127 0" result="hardAlpha"/>
<feOffset dy="4"/>
<feGaussianBlur stdDeviation="2"/>
<feComposite in2="hardAlpha" operator="out"/>
<feColorMatrix type="matrix" values="0 0 0 0 0 0 0 0 0 0 0 0 0 0 0 0 0 0 0.25 0"/>
<feBlend mode="normal" in2="BackgroundImageFix" result="effect1_dropShadow_500_10788"/>
<feBlend mode="normal" in="SourceGraphic" in2="effect1_dropShadow_500_10788" result="shape"/>
</filter>
</defs>
</svg>
