<svg width="18" height="22" viewBox="0 0 18 22" fill="none" xmlns="http://www.w3.org/2000/svg">
<g filter="url(#filter0_d_500_10789)">
<path fill-rule="evenodd" clip-rule="evenodd" d="M4.21967 7.53033C3.92678 7.23744 3.92678 6.76256 4.21967 6.46967L8.46967 2.21967C8.76256 1.92678 9.23744 1.92678 9.53033 2.21967L13.7803 6.46967C14.0732 6.76256 14.0732 7.23744 13.7803 7.53033C13.4874 7.82322 13.0126 7.82322 12.7197 7.53033L9.75 4.56066V13.25C9.75 13.6642 9.41421 14 9 14C8.58579 14 8.25 13.6642 8.25 13.25V4.56066L5.28033 7.53033C4.98744 7.82322 4.51256 7.82322 4.21967 7.53033Z" fill="black"/>
</g>
<defs>
<filter id="filter0_d_500_10789" x="-3" y="0" width="24" height="24" filterUnits="userSpaceOnUse" color-interpolation-filters="sRGB">
<feFlood flood-opacity="0" result="BackgroundImageFix"/>
<feColorMatrix in="SourceAlpha" type="matrix" values="0 0 0 0 0 0 0 0 0 0 0 0 0 0 0 0 0 0 127 0" result="hardAlpha"/>
<feOffset dy="4"/>
<feGaussianBlur stdDeviation="2"/>
<feComposite in2="hardAlpha" operator="out"/>
<feColorMatrix type="matrix" values="0 0 0 0 0 0 0 0 0 0 0 0 0 0 0 0 0 0 0.25 0"/>
<feBlend mode="normal" in2="BackgroundImageFix" result="effect1_dropShadow_500_10789"/>
<feBlend mode="normal" in="SourceGraphic" in2="effect1_dropShadow_500_10789" result="shape"/>
</filter>
</defs>
</svg>
