<svg width="22" height="23" viewBox="0 0 22 23" fill="none" xmlns="http://www.w3.org/2000/svg">
<g filter="url(#filter0_d_501_10157)">
<path fill-rule="evenodd" clip-rule="evenodd" d="M18 8C18 11.866 14.866 15 11 15C7.13401 15 4 11.866 4 8C4 4.13401 7.13401 1 11 1C14.866 1 18 4.13401 18 8ZM14.3226 12.3833C13.3996 13.0841 12.2484 13.5 11 13.5C7.96243 13.5 5.5 11.0376 5.5 8C5.5 6.75165 5.9159 5.60043 6.6167 4.67736L14.3226 12.3833ZM15.3833 11.3226L7.67736 3.6167C8.60043 2.9159 9.75165 2.5 11 2.5C14.0376 2.5 16.5 4.96243 16.5 8C16.5 9.24835 16.0841 10.3996 15.3833 11.3226Z" fill="black"/>
</g>
<defs>
<filter id="filter0_d_501_10157" x="-1" y="0" width="24" height="24" filterUnits="userSpaceOnUse" color-interpolation-filters="sRGB">
<feFlood flood-opacity="0" result="BackgroundImageFix"/>
<feColorMatrix in="SourceAlpha" type="matrix" values="0 0 0 0 0 0 0 0 0 0 0 0 0 0 0 0 0 0 127 0" result="hardAlpha"/>
<feOffset dy="4"/>
<feGaussianBlur stdDeviation="2"/>
<feComposite in2="hardAlpha" operator="out"/>
<feColorMatrix type="matrix" values="0 0 0 0 0 0 0 0 0 0 0 0 0 0 0 0 0 0 0.25 0"/>
<feBlend mode="normal" in2="BackgroundImageFix" result="effect1_dropShadow_501_10157"/>
<feBlend mode="normal" in="SourceGraphic" in2="effect1_dropShadow_501_10157" result="shape"/>
</filter>
</defs>
</svg>
