<svg width="28" height="30" viewBox="0 0 28 30" fill="none" xmlns="http://www.w3.org/2000/svg">
<g filter="url(#filter0_d_70_12851)">
<path fill-rule="evenodd" clip-rule="evenodd" d="M12.1 4H10.9C9.75514 4 8.98671 4.00117 8.39496 4.04952C7.82071 4.09643 7.54615 4.1802 7.36502 4.27248C6.89462 4.51217 6.51217 4.89462 6.27248 5.36502C6.1802 5.54615 6.09643 5.82071 6.04952 6.39496C6.00117 6.98671 6 7.75514 6 8.9V10.1C6 11.2449 6.00117 12.0133 6.04952 12.605C6.09643 13.1793 6.1802 13.4539 6.27248 13.635C6.51217 14.1054 6.89462 14.4878 7.36502 14.7275C7.54615 14.8198 7.82071 14.9036 8.39496 14.9505C8.70516 14.9758 9.06392 14.9882 9.5 14.9943V13.9C9.5 11.6598 9.5 10.5397 9.93597 9.68404C10.3195 8.93139 10.9314 8.31947 11.684 7.93597C12.5397 7.5 13.6598 7.5 15.9 7.5H16.9943C16.9882 7.06392 16.9758 6.70516 16.9505 6.39496C16.9036 5.82071 16.8198 5.54615 16.7275 5.36502C16.4878 4.89462 16.1054 4.51217 15.635 4.27248C15.4539 4.1802 15.1793 4.09643 14.605 4.04952C14.0133 4.00117 13.2449 4 12.1 4ZM18.4945 7.50552C18.4763 6.15211 18.3984 5.34029 18.064 4.68404C17.6805 3.93139 17.0686 3.31947 16.316 2.93597C15.4603 2.5 14.3402 2.5 12.1 2.5H10.9C8.65979 2.5 7.53969 2.5 6.68404 2.93597C5.93139 3.31947 5.31947 3.93139 4.93597 4.68404C4.5 5.53969 4.5 6.65979 4.5 8.9V10.1C4.5 12.3402 4.5 13.4603 4.93597 14.316C5.31947 15.0686 5.93139 15.6805 6.68404 16.064C7.34029 16.3984 8.15211 16.4763 9.50552 16.4945C9.52368 17.8479 9.6016 18.6597 9.93597 19.316C10.3195 20.0686 10.9314 20.6805 11.684 21.064C12.5397 21.5 13.6598 21.5 15.9 21.5H17.1C19.3402 21.5 20.4603 21.5 21.316 21.064C22.0686 20.6805 22.6805 20.0686 23.064 19.316C23.5 18.4603 23.5 17.3402 23.5 15.1V13.9C23.5 11.6598 23.5 10.5397 23.064 9.68404C22.6805 8.93139 22.0686 8.31947 21.316 7.93597C20.6597 7.6016 19.8479 7.52368 18.4945 7.50552ZM15.9 9H17.1C18.2449 9 19.0133 9.00117 19.605 9.04952C20.1793 9.09643 20.4539 9.1802 20.635 9.27248C21.1054 9.51217 21.4878 9.89462 21.7275 10.365C21.8198 10.5461 21.9036 10.8207 21.9505 11.395C21.9988 11.9867 22 12.7551 22 13.9V15.1C22 16.2449 21.9988 17.0133 21.9505 17.605C21.9036 18.1793 21.8198 18.4539 21.7275 18.635C21.4878 19.1054 21.1054 19.4878 20.635 19.7275C20.4539 19.8198 20.1793 19.9036 19.605 19.9505C19.0133 19.9988 18.2449 20 17.1 20H15.9C14.7551 20 13.9867 19.9988 13.395 19.9505C12.8207 19.9036 12.5461 19.8198 12.365 19.7275C11.8946 19.4878 11.5122 19.1054 11.2725 18.635C11.1802 18.4539 11.0964 18.1793 11.0495 17.605C11.0012 17.0133 11 16.2449 11 15.1V13.9C11 12.7551 11.0012 11.9867 11.0495 11.395C11.0964 10.8207 11.1802 10.5461 11.2725 10.365C11.5122 9.89462 11.8946 9.51217 12.365 9.27248C12.5461 9.1802 12.8207 9.09643 13.395 9.04952C13.9867 9.00117 14.7551 9 15.9 9Z" fill="black"/>
</g>
<defs>
<filter id="filter0_d_70_12851" x="-2" y="0" width="32" height="32" filterUnits="userSpaceOnUse" color-interpolation-filters="sRGB">
<feFlood flood-opacity="0" result="BackgroundImageFix"/>
<feColorMatrix in="SourceAlpha" type="matrix" values="0 0 0 0 0 0 0 0 0 0 0 0 0 0 0 0 0 0 127 0" result="hardAlpha"/>
<feOffset dy="4"/>
<feGaussianBlur stdDeviation="2"/>
<feComposite in2="hardAlpha" operator="out"/>
<feColorMatrix type="matrix" values="0 0 0 0 0 0 0 0 0 0 0 0 0 0 0 0 0 0 0.25 0"/>
<feBlend mode="normal" in2="BackgroundImageFix" result="effect1_dropShadow_70_12851"/>
<feBlend mode="normal" in="SourceGraphic" in2="effect1_dropShadow_70_12851" result="shape"/>
</filter>
</defs>
</svg>
