<svg width="22" height="23" viewBox="0 0 22 23" fill="none" xmlns="http://www.w3.org/2000/svg">
<g filter="url(#filter0_d_238_8321)">
<path fill-rule="evenodd" clip-rule="evenodd" d="M13.9998 10.9998C13.9975 12.2781 13.9729 12.9635 13.7003 13.4985C13.4366 14.0159 13.0159 14.4366 12.4985 14.7003C11.9102 15 11.1401 15 9.6 15H8.4C6.85986 15 6.08978 15 5.50153 14.7003C4.98408 14.4366 4.56338 14.0159 4.29973 13.4985C4 12.9102 4 12.1401 4 10.6V9.4C4 7.85986 4 7.08978 4.29973 6.50153C4.56338 5.98408 4.98408 5.56338 5.50153 5.29973C6.03653 5.02713 6.72192 5.00246 8.00022 5.00022C8.00246 3.72192 8.02713 3.03653 8.29973 2.50153C8.56338 1.98408 8.98408 1.56338 9.50153 1.29973C10.0898 1 10.8599 1 12.4 1H13.6C15.1401 1 15.9102 1 16.4985 1.29973C17.0159 1.56338 17.4366 1.98408 17.7003 2.50153C18 3.08978 18 3.85986 18 5.4V6.6C18 8.14014 18 8.91022 17.7003 9.49847C17.4366 10.0159 17.0159 10.4366 16.4985 10.7003C15.9635 10.9729 15.2781 10.9975 13.9998 10.9998ZM9.5 5H9.6C11.1401 5 11.9102 5 12.4985 5.29973C13.0159 5.56338 13.4366 5.98408 13.7003 6.50153C14 7.08978 14 7.85986 14 9.4V9.5H14.5C15.2001 9.5 15.5501 9.5 15.8175 9.36376C16.0527 9.24392 16.2439 9.05269 16.3638 8.81749C16.5 8.5501 16.5 8.20007 16.5 7.5V4.5C16.5 3.79993 16.5 3.4499 16.3638 3.18251C16.2439 2.94731 16.0527 2.75608 15.8175 2.63624C15.5501 2.5 15.2001 2.5 14.5 2.5H11.5C10.7999 2.5 10.4499 2.5 10.1825 2.63624C9.94731 2.75608 9.75608 2.94731 9.63624 3.18251C9.5 3.4499 9.5 3.79993 9.5 4.5V5ZM5.5 8.5C5.5 7.79993 5.5 7.4499 5.63624 7.18251C5.75608 6.94731 5.94731 6.75608 6.18251 6.63624C6.4499 6.5 6.79993 6.5 7.5 6.5H10.5C11.2001 6.5 11.5501 6.5 11.8175 6.63624C12.0527 6.75608 12.2439 6.94731 12.3638 7.18251C12.5 7.4499 12.5 7.79993 12.5 8.5V11.5C12.5 12.2001 12.5 12.5501 12.3638 12.8175C12.2439 13.0527 12.0527 13.2439 11.8175 13.3638C11.5501 13.5 11.2001 13.5 10.5 13.5H7.5C6.79993 13.5 6.4499 13.5 6.18251 13.3638C5.94731 13.2439 5.75608 13.0527 5.63624 12.8175C5.5 12.5501 5.5 12.2001 5.5 11.5V8.5Z" fill="black"/>
</g>
<defs>
<filter id="filter0_d_238_8321" x="-1" y="0" width="24" height="24" filterUnits="userSpaceOnUse" color-interpolation-filters="sRGB">
<feFlood flood-opacity="0" result="BackgroundImageFix"/>
<feColorMatrix in="SourceAlpha" type="matrix" values="0 0 0 0 0 0 0 0 0 0 0 0 0 0 0 0 0 0 127 0" result="hardAlpha"/>
<feOffset dy="4"/>
<feGaussianBlur stdDeviation="2"/>
<feComposite in2="hardAlpha" operator="out"/>
<feColorMatrix type="matrix" values="0 0 0 0 0 0 0 0 0 0 0 0 0 0 0 0 0 0 0.25 0"/>
<feBlend mode="normal" in2="BackgroundImageFix" result="effect1_dropShadow_238_8321"/>
<feBlend mode="normal" in="SourceGraphic" in2="effect1_dropShadow_238_8321" result="shape"/>
</filter>
</defs>
</svg>
