<svg width="26" height="29" viewBox="0 0 26 29" fill="none" xmlns="http://www.w3.org/2000/svg">
<g filter="url(#filter0_d_34_12893)">
<path fill-rule="evenodd" clip-rule="evenodd" d="M6 7.5C6 6.91456 6.51436 6.1681 7.84659 5.52347C9.12667 4.90408 10.9477 4.5 13 4.5C15.0523 4.5 16.8733 4.90408 18.1534 5.52347C19.4856 6.1681 20 6.91456 20 7.5C20 8.08544 19.4856 8.8319 18.1534 9.47653C16.8733 10.0959 15.0523 10.5 13 10.5C10.9477 10.5 9.12667 10.0959 7.84659 9.47653C6.51436 8.8319 6 8.08544 6 7.5ZM4.5 7.5C4.5 6.01437 5.72053 4.88584 7.19325 4.17323C8.71813 3.43539 10.772 3 13 3C15.228 3 17.2819 3.43539 18.8067 4.17323C20.2795 4.88584 21.5 6.01437 21.5 7.5V12V16.5C21.5 17.9856 20.2795 19.1142 18.8067 19.8268C17.2819 20.5646 15.228 21 13 21C10.772 21 8.71813 20.5646 7.19325 19.8268C5.72053 19.1142 4.5 17.9856 4.5 16.5V12V7.5ZM20 10.1039V12C20 12.5854 19.4856 13.3319 18.1534 13.9765C16.8733 14.5959 15.0523 15 13 15C10.9477 15 9.12667 14.5959 7.84659 13.9765C6.51436 13.3319 6 12.5854 6 12V10.1039C6.36086 10.3788 6.76647 10.6203 7.19325 10.8268C8.71813 11.5646 10.772 12 13 12C15.228 12 17.2819 11.5646 18.8067 10.8268C19.2335 10.6203 19.6391 10.3788 20 10.1039ZM6 16.5V14.6039C6.36086 14.8788 6.76647 15.1203 7.19325 15.3268C8.71813 16.0646 10.772 16.5 13 16.5C15.228 16.5 17.2819 16.0646 18.8067 15.3268C19.2335 15.1203 19.6391 14.8788 20 14.6039V16.5C20 17.0854 19.4856 17.8319 18.1534 18.4765C16.8733 19.0959 15.0523 19.5 13 19.5C10.9477 19.5 9.12667 19.0959 7.84659 18.4765C6.51436 17.8319 6 17.0854 6 16.5Z" fill="black"/>
</g>
<defs>
<filter id="filter0_d_34_12893" x="-3" y="0" width="32" height="32" filterUnits="userSpaceOnUse" color-interpolation-filters="sRGB">
<feFlood flood-opacity="0" result="BackgroundImageFix"/>
<feColorMatrix in="SourceAlpha" type="matrix" values="0 0 0 0 0 0 0 0 0 0 0 0 0 0 0 0 0 0 127 0" result="hardAlpha"/>
<feOffset dy="4"/>
<feGaussianBlur stdDeviation="2"/>
<feComposite in2="hardAlpha" operator="out"/>
<feColorMatrix type="matrix" values="0 0 0 0 0 0 0 0 0 0 0 0 0 0 0 0 0 0 0.25 0"/>
<feBlend mode="normal" in2="BackgroundImageFix" result="effect1_dropShadow_34_12893"/>
<feBlend mode="normal" in="SourceGraphic" in2="effect1_dropShadow_34_12893" result="shape"/>
</filter>
</defs>
</svg>
