<svg width="24" height="26" viewBox="0 0 24 26" fill="none" xmlns="http://www.w3.org/2000/svg">
<g filter="url(#filter0_d_237_7952)">
<path fill-rule="evenodd" clip-rule="evenodd" d="M8.79997 17.9999C7.11981 17.9999 6.27973 17.9999 5.638 17.6729C5.07351 17.3853 4.61457 16.9263 4.32695 16.3618C3.99997 15.7201 3.99997 14.88 3.99997 13.1999L3.99997 10.7999C3.99997 9.11972 3.99997 8.27964 4.32695 7.63791C4.61457 7.07342 5.07351 6.61448 5.638 6.32686C6.16896 6.05632 6.83569 6.00962 8.00167 6.00156C8.00974 4.83573 8.05645 4.16906 8.32697 3.63814C8.61459 3.07365 9.07353 2.61471 9.63801 2.32709C10.2797 2.00011 11.1198 2.00011 12.8 2.00011L15.2 2.00011C16.8801 2.00011 17.7202 2.00011 18.362 2.32709C18.9264 2.61471 19.3854 3.07365 19.673 3.63814C20 4.27987 20 5.11995 20 6.80011L20 9.20011C20 10.8803 20 11.7203 19.673 12.3621C19.3854 12.9266 18.9264 13.3855 18.362 13.6731C17.831 13.9437 17.1643 13.9904 15.9983 13.9984C15.9902 15.1643 15.9435 15.8309 15.673 16.3618C15.3854 16.9263 14.9264 17.3853 14.3619 17.6729C13.7202 17.9999 12.8801 17.9999 11.2 17.9999L8.79997 17.9999ZM16 12.5001L16.1 12.5001C16.9401 12.5001 17.3601 12.5001 17.681 12.3366C17.9632 12.1928 18.1927 11.9633 18.3365 11.6811C18.5 11.3602 18.5 10.9402 18.5 10.1001L18.5 5.90011C18.5 5.06003 18.5 4.63999 18.3365 4.31912C18.1927 4.03688 17.9632 3.80741 17.681 3.6636C17.3601 3.50011 16.9401 3.50011 16.1 3.50011L11.9 3.50011C11.0599 3.50011 10.6399 3.50011 10.319 3.6636C10.0368 3.80741 9.80729 4.03688 9.66348 4.31912C9.49998 4.63999 9.49998 5.06003 9.49998 5.90011L9.49998 5.99988L11.2 5.99988C12.8801 5.99988 13.7202 5.99988 14.3619 6.32686C14.9264 6.61448 15.3854 7.07342 15.673 7.63791C16 8.27964 16 9.11972 16 10.7999L16 12.5001ZM7.89997 16.4999C7.05989 16.4999 6.63985 16.4999 6.31898 16.3364C6.03674 16.1926 5.80727 15.9631 5.66346 15.6809C5.49997 15.36 5.49997 14.94 5.49997 14.0999L5.49997 9.89988C5.49997 9.0598 5.49997 8.63976 5.66346 8.31889C5.80727 8.03665 6.03674 7.80718 6.31898 7.66337C6.63985 7.49988 7.05989 7.49988 7.89997 7.49988L12.1 7.49988C12.94 7.49988 13.3601 7.49988 13.681 7.66337C13.9632 7.80718 14.1927 8.03665 14.3365 8.31889C14.5 8.63976 14.5 9.0598 14.5 9.89988L14.5 14.0999C14.5 14.94 14.5 15.36 14.3365 15.6809C14.1927 15.9631 13.9632 16.1926 13.681 16.3364C13.3601 16.4999 12.94 16.4999 12.1 16.4999L7.89997 16.4999Z" fill="black"/>
</g>
<defs>
<filter id="filter0_d_237_7952" x="-2" y="0" width="28" height="28" filterUnits="userSpaceOnUse" color-interpolation-filters="sRGB">
<feFlood flood-opacity="0" result="BackgroundImageFix"/>
<feColorMatrix in="SourceAlpha" type="matrix" values="0 0 0 0 0 0 0 0 0 0 0 0 0 0 0 0 0 0 127 0" result="hardAlpha"/>
<feOffset dy="4"/>
<feGaussianBlur stdDeviation="2"/>
<feComposite in2="hardAlpha" operator="out"/>
<feColorMatrix type="matrix" values="0 0 0 0 0 0 0 0 0 0 0 0 0 0 0 0 0 0 0.25 0"/>
<feBlend mode="normal" in2="BackgroundImageFix" result="effect1_dropShadow_237_7952"/>
<feBlend mode="normal" in="SourceGraphic" in2="effect1_dropShadow_237_7952" result="shape"/>
</filter>
</defs>
</svg>
