<svg width="26" height="29" viewBox="0 0 26 29" fill="none" xmlns="http://www.w3.org/2000/svg">
<g filter="url(#filter0_d_34_12930)">
<path fill-rule="evenodd" clip-rule="evenodd" d="M20.25 11.5C20.6642 11.5 21 11.1642 21 10.75C21 10.3358 20.6642 10 20.25 10H16.0607L21.7803 4.28033C22.0732 3.98744 22.0732 3.51256 21.7803 3.21967C21.4874 2.92678 21.0126 2.92678 20.7197 3.21967L15 8.93934V4.75C15 4.33579 14.6642 4 14.25 4C13.8358 4 13.5 4.33579 13.5 4.75V10.75C13.5 11.1642 13.8358 11.5 14.25 11.5H20.25ZM5.75 12.5C5.33579 12.5 5 12.8358 5 13.25C5 13.6642 5.33579 14 5.75 14H9.93934L4.21967 19.7197C3.92678 20.0126 3.92678 20.4874 4.21967 20.7803C4.51256 21.0732 4.98744 21.0732 5.28033 20.7803L11 15.0607V19.25C11 19.6642 11.3358 20 11.75 20C12.1642 20 12.5 19.6642 12.5 19.25V13.25C12.5 12.8358 12.1642 12.5 11.75 12.5H5.75Z" fill="black"/>
</g>
<defs>
<filter id="filter0_d_34_12930" x="-3" y="0" width="32" height="32" filterUnits="userSpaceOnUse" color-interpolation-filters="sRGB">
<feFlood flood-opacity="0" result="BackgroundImageFix"/>
<feColorMatrix in="SourceAlpha" type="matrix" values="0 0 0 0 0 0 0 0 0 0 0 0 0 0 0 0 0 0 127 0" result="hardAlpha"/>
<feOffset dy="4"/>
<feGaussianBlur stdDeviation="2"/>
<feComposite in2="hardAlpha" operator="out"/>
<feColorMatrix type="matrix" values="0 0 0 0 0 0 0 0 0 0 0 0 0 0 0 0 0 0 0.25 0"/>
<feBlend mode="normal" in2="BackgroundImageFix" result="effect1_dropShadow_34_12930"/>
<feBlend mode="normal" in="SourceGraphic" in2="effect1_dropShadow_34_12930" result="shape"/>
</filter>
</defs>
</svg>
