<svg width="20" height="23" viewBox="0 0 20 23" fill="none" xmlns="http://www.w3.org/2000/svg">
<g filter="url(#filter0_d_501_10219)">
<path fill-rule="evenodd" clip-rule="evenodd" d="M6.63569 3.21983C5.77767 3.66927 5.5 4.15946 5.5 4.5C5.5 4.84054 5.77767 5.33073 6.63569 5.78017C7.45819 6.211 8.64642 6.5 10 6.5C11.3536 6.5 12.5418 6.211 13.3643 5.78017C14.2223 5.33073 14.5 4.84054 14.5 4.5C14.5 4.15946 14.2223 3.66927 13.3643 3.21983C12.5418 2.789 11.3536 2.5 10 2.5C8.64642 2.5 7.45819 2.789 6.63569 3.21983ZM14.5 6.85168C14.358 6.94438 14.2106 7.03018 14.0603 7.10892C12.9827 7.67339 11.5459 8 10 8C8.45408 8 7.01731 7.67339 5.93968 7.10892C5.78936 7.03018 5.64205 6.94438 5.5 6.85168V8C5.5 8.34054 5.77767 8.83073 6.63569 9.28017C7.45819 9.711 8.64642 10 10 10C11.3536 10 12.5418 9.711 13.3643 9.28017C14.2223 8.83073 14.5 8.34054 14.5 8V6.85168ZM16 8V4.5C16 3.32176 15.1024 2.43695 14.0603 1.89108C12.9827 1.32661 11.5459 1 10 1C8.45408 1 7.01731 1.32661 5.93968 1.89108C4.89758 2.43695 4 3.32176 4 4.5V8V11.5C4 12.6782 4.89758 13.5631 5.93968 14.1089C7.01731 14.6734 8.45408 15 10 15C11.5459 15 12.9827 14.6734 14.0603 14.1089C15.1024 13.5631 16 12.6782 16 11.5V8ZM14.5 10.3517C14.358 10.4444 14.2106 10.5302 14.0603 10.6089C12.9827 11.1734 11.5459 11.5 10 11.5C8.45408 11.5 7.01731 11.1734 5.93968 10.6089C5.78936 10.5302 5.64205 10.4444 5.5 10.3517V11.5C5.5 11.8405 5.77767 12.3307 6.63569 12.7802C7.45819 13.211 8.64642 13.5 10 13.5C11.3536 13.5 12.5418 13.211 13.3643 12.7802C14.2223 12.3307 14.5 11.8405 14.5 11.5V10.3517Z" fill="black"/>
</g>
<defs>
<filter id="filter0_d_501_10219" x="-2" y="0" width="24" height="24" filterUnits="userSpaceOnUse" color-interpolation-filters="sRGB">
<feFlood flood-opacity="0" result="BackgroundImageFix"/>
<feColorMatrix in="SourceAlpha" type="matrix" values="0 0 0 0 0 0 0 0 0 0 0 0 0 0 0 0 0 0 127 0" result="hardAlpha"/>
<feOffset dy="4"/>
<feGaussianBlur stdDeviation="2"/>
<feComposite in2="hardAlpha" operator="out"/>
<feColorMatrix type="matrix" values="0 0 0 0 0 0 0 0 0 0 0 0 0 0 0 0 0 0 0.25 0"/>
<feBlend mode="normal" in2="BackgroundImageFix" result="effect1_dropShadow_501_10219"/>
<feBlend mode="normal" in="SourceGraphic" in2="effect1_dropShadow_501_10219" result="shape"/>
</filter>
</defs>
</svg>
