<svg width="22" height="24" viewBox="0 0 22 24" fill="none" xmlns="http://www.w3.org/2000/svg">
<g filter="url(#filter0_d_1061_31820)">
<path fill-rule="evenodd" clip-rule="evenodd" d="M11.499 0.250001L9.7679 0.25C8.95506 0.249993 8.29944 0.249987 7.76853 0.293364C7.2219 0.338026 6.74176 0.432386 6.29754 0.658726C5.59193 1.01825 5.01825 1.59193 4.65873 2.29754C4.43239 2.74175 4.33803 3.2219 4.29336 3.76853C4.24999 4.29944 4.24999 4.95504 4.25 5.76787V10.2321C4.24999 11.0449 4.24999 11.7006 4.29336 12.2315C4.33803 12.7781 4.43239 13.2582 4.65873 13.7025C5.01825 14.4081 5.59193 14.9818 6.29754 15.3413C6.74176 15.5676 7.2219 15.662 7.76853 15.7066C8.29944 15.75 8.95505 15.75 9.76788 15.75H12.2321C13.045 15.75 13.7006 15.75 14.2315 15.7066C14.7781 15.662 15.2582 15.5676 15.7025 15.3413C16.4081 14.9818 16.9818 14.4081 17.3413 13.7025C17.5676 13.2582 17.662 12.7781 17.7066 12.2315C17.75 11.7006 17.75 11.045 17.75 10.2321L17.75 6.27243C17.7504 6.02274 17.7507 5.78377 17.6947 5.55088C17.6457 5.3468 17.5649 5.15171 17.4553 4.97277C17.3301 4.76855 17.161 4.59979 16.9842 4.42345L13.5766 1.01583C13.4002 0.839052 13.2315 0.669867 13.0272 0.54472C12.8483 0.435063 12.6532 0.354254 12.4491 0.305261C12.2162 0.249347 11.9773 0.249644 11.7276 0.249954L11.501 0.250001H11.499ZM10.75 1.75V4.08102C10.75 4.48469 10.75 4.83205 10.7733 5.11797C10.798 5.41949 10.8523 5.7181 10.9985 6.0051C11.2171 6.43411 11.5659 6.7829 11.9949 7.00149C12.2819 7.14773 12.5805 7.20203 12.882 7.22666C13.168 7.25003 13.5153 7.25001 13.919 7.25L16.25 7.25V10.65C16.25 11.9101 16.25 12.5402 16.0048 13.0215C15.7891 13.4448 15.4448 13.7891 15.0215 14.0048C14.5402 14.25 13.9101 14.25 12.65 14.25H9.35C8.08988 14.25 7.45982 14.25 6.97852 14.0048C6.55516 13.7891 6.21095 13.4448 5.99524 13.0215C5.75 12.5402 5.75 11.9101 5.75 10.65V5.35C5.75 4.08988 5.75 3.45982 5.99524 2.97852C6.21095 2.55516 6.55516 2.21095 6.97852 1.99524C7.45982 1.75 8.08988 1.75 9.35 1.75H10.75ZM16.1722 5.75C16.1513 5.71791 16.1096 5.67029 15.8839 5.44454L12.5555 2.11612C12.3297 1.89037 12.2821 1.84871 12.25 1.82779V4.55C12.25 4.97004 12.25 5.18006 12.3317 5.34049C12.4037 5.48161 12.5184 5.59635 12.6595 5.66825C12.8199 5.75 13.03 5.75 13.45 5.75H16.1722Z" fill="black"/>
</g>
<defs>
<filter id="filter0_d_1061_31820" x="-1" y="0" width="24" height="24" filterUnits="userSpaceOnUse" color-interpolation-filters="sRGB">
<feFlood flood-opacity="0" result="BackgroundImageFix"/>
<feColorMatrix in="SourceAlpha" type="matrix" values="0 0 0 0 0 0 0 0 0 0 0 0 0 0 0 0 0 0 127 0" result="hardAlpha"/>
<feOffset dy="4"/>
<feGaussianBlur stdDeviation="2"/>
<feComposite in2="hardAlpha" operator="out"/>
<feColorMatrix type="matrix" values="0 0 0 0 0 0 0 0 0 0 0 0 0 0 0 0 0 0 0.25 0"/>
<feBlend mode="normal" in2="BackgroundImageFix" result="effect1_dropShadow_1061_31820"/>
<feBlend mode="normal" in="SourceGraphic" in2="effect1_dropShadow_1061_31820" result="shape"/>
</filter>
</defs>
</svg>
