<svg width="26" height="29" viewBox="0 0 26 29" fill="none" xmlns="http://www.w3.org/2000/svg">
<g filter="url(#filter0_d_2368_51872)">
<path fill-rule="evenodd" clip-rule="evenodd" d="M4.26801 7.26318C4.26801 5.87365 4.26801 5.17888 4.5365 4.6473C4.77724 4.17067 5.16427 3.78365 5.6409 3.54291C6.17247 3.27441 6.86724 3.27441 8.25677 3.27441C9.64631 3.27441 10.3411 3.27441 10.8727 3.54291C11.3493 3.78365 11.7363 4.17067 11.9771 4.6473C12.2455 5.17888 12.2455 5.87365 12.2455 7.26318C12.2455 8.65272 12.2455 9.34749 11.9771 9.87906C11.7363 10.3557 11.3493 10.7427 10.8727 10.9835C10.3411 11.252 9.64631 11.252 8.25677 11.252C6.86724 11.252 6.17247 11.252 5.6409 10.9835C5.16427 10.7427 4.77724 10.3557 4.5365 9.87906C4.26801 9.34749 4.26801 8.65272 4.26801 7.26318ZM5.76874 6.3749C5.76874 5.81485 5.76874 5.53482 5.87773 5.32091C5.9736 5.13275 6.12659 4.97977 6.31475 4.8839C6.52866 4.7749 6.80869 4.7749 7.36874 4.7749H9.1449C9.70496 4.7749 9.98498 4.7749 10.1989 4.8839C10.3871 4.97977 10.54 5.13275 10.6359 5.32091C10.7449 5.53482 10.7449 5.81485 10.7449 6.3749V8.15107C10.7449 8.71112 10.7449 8.99115 10.6359 9.20506C10.54 9.39322 10.3871 9.5462 10.1989 9.64208C9.98498 9.75107 9.70496 9.75107 9.1449 9.75107H7.36874C6.80869 9.75107 6.52866 9.75107 6.31475 9.64208C6.12659 9.5462 5.9736 9.39322 5.87773 9.20506C5.76874 8.99115 5.76874 8.71112 5.76874 8.15107V6.3749ZM4.26801 16.7368C4.26801 15.3473 4.26801 14.6525 4.5365 14.1209C4.77724 13.6443 5.16427 13.2573 5.6409 13.0165C6.17247 12.748 6.86724 12.748 8.25677 12.748C9.64631 12.748 10.3411 12.748 10.8727 13.0165C11.3493 13.2573 11.7363 13.6443 11.9771 14.1209C12.2455 14.6525 12.2455 15.3473 12.2455 16.7368C12.2455 18.1264 12.2455 18.8211 11.9771 19.3527C11.7363 19.8293 11.3493 20.2164 10.8727 20.4571C10.3411 20.7256 9.64631 20.7256 8.25677 20.7256C6.86724 20.7256 6.17247 20.7256 5.6409 20.4571C5.16427 20.2164 4.77724 19.8293 4.5365 19.3527C4.26801 18.8211 4.26801 18.1264 4.26801 16.7368ZM5.76874 15.8485C5.76874 15.2885 5.76874 15.0085 5.87773 14.7945C5.9736 14.6064 6.12659 14.4534 6.31475 14.3575C6.52866 14.2485 6.80869 14.2485 7.36874 14.2485H9.1449C9.70496 14.2485 9.98498 14.2485 10.1989 14.3575C10.3871 14.4534 10.54 14.6064 10.6359 14.7945C10.7449 15.0085 10.7449 15.2885 10.7449 15.8485V17.6247C10.7449 18.1848 10.7449 18.4648 10.6359 18.6787C10.54 18.8669 10.3871 19.0198 10.1989 19.1157C9.98498 19.2247 9.70496 19.2247 9.1449 19.2247H7.36874C6.80869 19.2247 6.52866 19.2247 6.31475 19.1157C6.12659 19.0198 5.9736 18.8669 5.87773 18.6787C5.76874 18.4648 5.76874 18.1848 5.76874 17.6247V15.8485ZM14.0228 4.6473C13.7543 5.17888 13.7543 5.87365 13.7543 7.26318C13.7543 8.65272 13.7543 9.34749 14.0228 9.87906C14.2636 10.3557 14.6506 10.7427 15.1272 10.9835C15.6588 11.252 16.3536 11.252 17.7431 11.252C19.1326 11.252 19.8274 11.252 20.359 10.9835C20.8356 10.7427 21.2226 10.3557 21.4634 9.87906C21.7319 9.34749 21.7319 8.65272 21.7319 7.26318C21.7319 5.87365 21.7319 5.17888 21.4634 4.6473C21.2226 4.17067 20.8356 3.78365 20.359 3.54291C19.8274 3.27441 19.1326 3.27441 17.7431 3.27441C16.3536 3.27441 15.6588 3.27441 15.1272 3.54291C14.6506 3.78365 14.2636 4.17067 14.0228 4.6473ZM15.3641 5.32091C15.2551 5.53482 15.2551 5.81485 15.2551 6.3749V8.15107C15.2551 8.71112 15.2551 8.99115 15.3641 9.20506C15.4599 9.39322 15.6129 9.5462 15.8011 9.64208C16.015 9.75107 16.295 9.75107 16.8551 9.75107H18.6312C19.1913 9.75107 19.4713 9.75107 19.6852 9.64208C19.8734 9.5462 20.0264 9.39322 20.1222 9.20506C20.2312 8.99115 20.2312 8.71112 20.2312 8.15107V6.3749C20.2312 5.81485 20.2312 5.53482 20.1222 5.32091C20.0264 5.13275 19.8734 4.97977 19.6852 4.8839C19.4713 4.7749 19.1913 4.7749 18.6312 4.7749H16.8551C16.295 4.7749 16.015 4.7749 15.8011 4.8839C15.6129 4.97977 15.4599 5.13275 15.3641 5.32091ZM13.7543 16.7368C13.7543 15.3473 13.7543 14.6525 14.0228 14.1209C14.2636 13.6443 14.6506 13.2573 15.1272 13.0165C15.6588 12.748 16.3536 12.748 17.7431 12.748C19.1326 12.748 19.8274 12.748 20.359 13.0165C20.8356 13.2573 21.2226 13.6443 21.4634 14.1209C21.7319 14.6525 21.7319 15.3473 21.7319 16.7368C21.7319 18.1264 21.7319 18.8211 21.4634 19.3527C21.2226 19.8293 20.8356 20.2164 20.359 20.4571C19.8274 20.7256 19.1326 20.7256 17.7431 20.7256C16.3536 20.7256 15.6588 20.7256 15.1272 20.4571C14.6506 20.2164 14.2636 19.8293 14.0228 19.3527C13.7543 18.8211 13.7543 18.1264 13.7543 16.7368ZM15.2551 15.8485C15.2551 15.2885 15.2551 15.0085 15.3641 14.7945C15.4599 14.6064 15.6129 14.4534 15.8011 14.3575C16.015 14.2485 16.295 14.2485 16.8551 14.2485H18.6312C19.1913 14.2485 19.4713 14.2485 19.6852 14.3575C19.8734 14.4534 20.0264 14.6064 20.1222 14.7945C20.2312 15.0085 20.2312 15.2885 20.2312 15.8485V17.6247C20.2312 18.1848 20.2312 18.4648 20.1222 18.6787C20.0264 18.8669 19.8734 19.0198 19.6852 19.1157C19.4713 19.2247 19.1913 19.2247 18.6312 19.2247H16.8551C16.295 19.2247 16.015 19.2247 15.8011 19.1157C15.6129 19.0198 15.4599 18.8669 15.3641 18.6787C15.2551 18.4648 15.2551 18.1848 15.2551 17.6247V15.8485Z" fill="black"/>
</g>
<defs>
<filter id="filter0_d_2368_51872" x="-3" y="0" width="32" height="32" filterUnits="userSpaceOnUse" color-interpolation-filters="sRGB">
<feFlood flood-opacity="0" result="BackgroundImageFix"/>
<feColorMatrix in="SourceAlpha" type="matrix" values="0 0 0 0 0 0 0 0 0 0 0 0 0 0 0 0 0 0 127 0" result="hardAlpha"/>
<feOffset dy="4"/>
<feGaussianBlur stdDeviation="2"/>
<feComposite in2="hardAlpha" operator="out"/>
<feColorMatrix type="matrix" values="0 0 0 0 0 0 0 0 0 0 0 0 0 0 0 0 0 0 0.25 0"/>
<feBlend mode="normal" in2="BackgroundImageFix" result="effect1_dropShadow_2368_51872"/>
<feBlend mode="normal" in="SourceGraphic" in2="effect1_dropShadow_2368_51872" result="shape"/>
</filter>
</defs>
</svg>
