<svg width="24" height="29" viewBox="0 0 24 29" fill="none" xmlns="http://www.w3.org/2000/svg">
<g filter="url(#filter0_d_1187_36778)">
<path fill-rule="evenodd" clip-rule="evenodd" d="M13.0455 3.00018L10.5187 3.00018C9.70576 3.00018 9.05005 3.00017 8.51906 3.04356C7.97234 3.08824 7.49213 3.18263 7.04784 3.40904C6.34213 3.76868 5.76837 4.34254 5.40879 5.04838C5.18241 5.49274 5.08804 5.97304 5.04337 6.51985C4.99999 7.05093 4.99999 7.70675 5 8.51985V15.4803C4.99999 16.2934 4.99999 16.9493 5.04337 17.4803C5.08804 18.0271 5.18241 18.5074 5.40879 18.9518C5.76837 19.6576 6.34213 20.2315 7.04784 20.5911C7.49213 20.8176 7.97234 20.9119 8.51906 20.9566C9.05005 21 9.70575 21 10.5187 21H14.4812C15.2942 21 15.9499 21 16.4809 20.9566C17.0276 20.9119 17.5078 20.8176 17.9521 20.5911C18.6578 20.2315 19.2315 19.6576 19.5911 18.9518C19.8175 18.5074 19.9119 18.0271 19.9565 17.4803C19.9999 16.9493 19.9999 16.2934 19.9999 15.4803L20 9.80126C20.0002 9.55932 20.0005 9.32772 19.9478 9.10132C19.9017 8.9029 19.8255 8.71269 19.7219 8.53729C19.6037 8.33714 19.4436 8.16983 19.2763 7.99503L15.281 3.80958C15.1034 3.62301 14.9334 3.44447 14.7252 3.31217C14.5428 3.19625 14.3428 3.11067 14.133 3.05875C13.8935 2.99949 13.647 2.9998 13.3895 3.00013L13.0791 3.00018C13.0735 3.00006 13.0679 3 13.0623 3C13.0567 3 13.0511 3.00006 13.0455 3.00018ZM12.3122 4.50067H10.5508C9.69825 4.50067 9.10393 4.50125 8.64123 4.53906C8.18728 4.57616 7.92648 4.64531 7.72893 4.74598C7.3055 4.96177 6.96125 5.30608 6.7455 5.72958C6.64484 5.92716 6.5757 6.18801 6.53861 6.64204C6.50081 7.10482 6.50023 7.69924 6.50023 8.55197V15.4482C6.50023 16.3009 6.50081 16.8954 6.53861 17.3581C6.5757 17.8122 6.64484 18.073 6.7455 18.2706C6.96125 18.6941 7.3055 19.0384 7.72893 19.2542C7.92648 19.3549 8.18728 19.424 8.64123 19.4611C9.10393 19.4989 9.69825 19.4995 10.5508 19.4995H14.4491C15.3017 19.4995 15.896 19.4989 16.3587 19.4611C16.8126 19.424 17.0734 19.3549 17.271 19.2542C17.6944 19.0384 18.0387 18.6941 18.2544 18.2706C18.3551 18.073 18.4242 17.8122 18.4613 17.3581C18.4991 16.8954 18.4997 16.3009 18.4997 15.4482V10.9824L15.4816 10.9824C15.0779 10.9824 14.7305 10.9824 14.4445 10.959C14.143 10.9344 13.8443 10.8801 13.5573 10.7338C13.1282 10.5151 12.7794 10.1662 12.5607 9.73706C12.4145 9.44998 12.3602 9.15126 12.3355 8.84965C12.3122 8.56364 12.3122 8.21618 12.3122 7.81239V4.50067ZM18.493 9.48188H15.5107C15.0698 9.48188 14.7842 9.4813 14.5667 9.46352C14.3579 9.44646 14.2787 9.41738 14.2384 9.39684C14.0916 9.32203 13.9722 9.20267 13.8974 9.05586C13.8769 9.01555 13.8478 8.93628 13.8308 8.72747C13.813 8.50989 13.8124 8.22429 13.8124 7.78334V4.52692C13.8504 4.53974 13.8868 4.5571 13.9207 4.57866C13.9542 4.59993 13.9925 4.63263 14.2358 4.88761L18.1537 8.99201C18.382 9.23116 18.4111 9.26822 18.4302 9.30045C18.4561 9.3443 18.4751 9.39185 18.4867 9.44146C18.4891 9.45192 18.4912 9.46324 18.493 9.48188Z" fill="black"/>
</g>
<defs>
<filter id="filter0_d_1187_36778" x="-4" y="0" width="32" height="32" filterUnits="userSpaceOnUse" color-interpolation-filters="sRGB">
<feFlood flood-opacity="0" result="BackgroundImageFix"/>
<feColorMatrix in="SourceAlpha" type="matrix" values="0 0 0 0 0 0 0 0 0 0 0 0 0 0 0 0 0 0 127 0" result="hardAlpha"/>
<feOffset dy="4"/>
<feGaussianBlur stdDeviation="2"/>
<feComposite in2="hardAlpha" operator="out"/>
<feColorMatrix type="matrix" values="0 0 0 0 0 0 0 0 0 0 0 0 0 0 0 0 0 0 0.25 0"/>
<feBlend mode="normal" in2="BackgroundImageFix" result="effect1_dropShadow_1187_36778"/>
<feBlend mode="normal" in="SourceGraphic" in2="effect1_dropShadow_1187_36778" result="shape"/>
</filter>
</defs>
</svg>
