<svg width="28" height="30" viewBox="0 0 28 30" fill="none" xmlns="http://www.w3.org/2000/svg">
<g filter="url(#filter0_d_117_20826)">
<path fill-rule="evenodd" clip-rule="evenodd" d="M4 6C4 4.59987 4 3.8998 4.27248 3.36502C4.51217 2.89462 4.89462 2.51217 5.36502 2.27248C5.8998 2 6.59987 2 8 2H9.25C10.6501 2 11.3502 2 11.885 2.27248C12.3554 2.51217 12.7378 2.89462 12.9775 3.36502C13.25 3.8998 13.25 4.59987 13.25 6V7.25C13.25 8.65013 13.25 9.3502 12.9775 9.88498C12.7378 10.3554 12.3554 10.7378 11.885 10.9775C11.3502 11.25 10.6501 11.25 9.25 11.25H8C6.59987 11.25 5.8998 11.25 5.36502 10.9775C4.89462 10.7378 4.51217 10.3554 4.27248 9.88498C4 9.3502 4 8.65013 4 7.25V6ZM5.5 5.1C5.5 4.53995 5.5 4.25992 5.60899 4.04601C5.70487 3.85785 5.85785 3.70487 6.04601 3.60899C6.25992 3.5 6.53995 3.5 7.1 3.5H10.15C10.7101 3.5 10.9901 3.5 11.204 3.60899C11.3922 3.70487 11.5451 3.85785 11.641 4.04601C11.75 4.25992 11.75 4.53995 11.75 5.1V8.15C11.75 8.71005 11.75 8.99008 11.641 9.20399C11.5451 9.39215 11.3922 9.54513 11.204 9.64101C10.9901 9.75 10.7101 9.75 10.15 9.75H7.1C6.53995 9.75 6.25992 9.75 6.04601 9.64101C5.85785 9.54513 5.70487 9.39215 5.60899 9.20399C5.5 8.99008 5.5 8.71005 5.5 8.15V5.1ZM4 16.75C4 15.3499 4 14.6498 4.27248 14.115C4.51217 13.6446 4.89462 13.2622 5.36502 13.0225C5.8998 12.75 6.59987 12.75 8 12.75H9.25C10.6501 12.75 11.3502 12.75 11.885 13.0225C12.3554 13.2622 12.7378 13.6446 12.9775 14.115C13.25 14.6498 13.25 15.3499 13.25 16.75V18C13.25 19.4001 13.25 20.1002 12.9775 20.635C12.7378 21.1054 12.3554 21.4878 11.885 21.7275C11.3502 22 10.6501 22 9.25 22H8C6.59987 22 5.8998 22 5.36502 21.7275C4.89462 21.4878 4.51217 21.1054 4.27248 20.635C4 20.1002 4 19.4001 4 18V16.75ZM5.5 15.85C5.5 15.2899 5.5 15.0099 5.60899 14.796C5.70487 14.6078 5.85785 14.4549 6.04601 14.359C6.25992 14.25 6.53995 14.25 7.1 14.25H10.15C10.7101 14.25 10.9901 14.25 11.204 14.359C11.3922 14.4549 11.5451 14.6078 11.641 14.796C11.75 15.0099 11.75 15.2899 11.75 15.85V18.9C11.75 19.4601 11.75 19.7401 11.641 19.954C11.5451 20.1422 11.3922 20.2951 11.204 20.391C10.9901 20.5 10.7101 20.5 10.15 20.5H7.1C6.53995 20.5 6.25992 20.5 6.04601 20.391C5.85785 20.2951 5.70487 20.1422 5.60899 19.954C5.5 19.7401 5.5 19.4601 5.5 18.9V15.85ZM15.0225 3.36502C14.75 3.8998 14.75 4.59987 14.75 6V7.25C14.75 8.65013 14.75 9.3502 15.0225 9.88498C15.2622 10.3554 15.6446 10.7378 16.115 10.9775C16.6498 11.25 17.3499 11.25 18.75 11.25H20C21.4001 11.25 22.1002 11.25 22.635 10.9775C23.1054 10.7378 23.4878 10.3554 23.7275 9.88498C24 9.3502 24 8.65013 24 7.25V6C24 4.59987 24 3.8998 23.7275 3.36502C23.4878 2.89462 23.1054 2.51217 22.635 2.27248C22.1002 2 21.4001 2 20 2H18.75C17.3499 2 16.6498 2 16.115 2.27248C15.6446 2.51217 15.2622 2.89462 15.0225 3.36502ZM16.359 4.04601C16.25 4.25992 16.25 4.53995 16.25 5.1V8.15C16.25 8.71005 16.25 8.99008 16.359 9.20399C16.4549 9.39215 16.6078 9.54513 16.796 9.64101C17.0099 9.75 17.2899 9.75 17.85 9.75H20.9C21.4601 9.75 21.7401 9.75 21.954 9.64101C22.1422 9.54513 22.2951 9.39215 22.391 9.20399C22.5 8.99008 22.5 8.71005 22.5 8.15V5.1C22.5 4.53995 22.5 4.25992 22.391 4.04601C22.2951 3.85785 22.1422 3.70487 21.954 3.60899C21.7401 3.5 21.4601 3.5 20.9 3.5H17.85C17.2899 3.5 17.0099 3.5 16.796 3.60899C16.6078 3.70487 16.4549 3.85785 16.359 4.04601ZM14.75 16.75C14.75 15.3499 14.75 14.6498 15.0225 14.115C15.2622 13.6446 15.6446 13.2622 16.115 13.0225C16.6498 12.75 17.3499 12.75 18.75 12.75H20C21.4001 12.75 22.1002 12.75 22.635 13.0225C23.1054 13.2622 23.4878 13.6446 23.7275 14.115C24 14.6498 24 15.3499 24 16.75V18C24 19.4001 24 20.1002 23.7275 20.635C23.4878 21.1054 23.1054 21.4878 22.635 21.7275C22.1002 22 21.4001 22 20 22H18.75C17.3499 22 16.6498 22 16.115 21.7275C15.6446 21.4878 15.2622 21.1054 15.0225 20.635C14.75 20.1002 14.75 19.4001 14.75 18V16.75ZM16.25 15.85C16.25 15.2899 16.25 15.0099 16.359 14.796C16.4549 14.6078 16.6078 14.4549 16.796 14.359C17.0099 14.25 17.2899 14.25 17.85 14.25H20.9C21.4601 14.25 21.7401 14.25 21.954 14.359C22.1422 14.4549 22.2951 14.6078 22.391 14.796C22.5 15.0099 22.5 15.2899 22.5 15.85V18.9C22.5 19.4601 22.5 19.7401 22.391 19.954C22.2951 20.1422 22.1422 20.2951 21.954 20.391C21.7401 20.5 21.4601 20.5 20.9 20.5H17.85C17.2899 20.5 17.0099 20.5 16.796 20.391C16.6078 20.2951 16.4549 20.1422 16.359 19.954C16.25 19.7401 16.25 19.4601 16.25 18.9V15.85Z" fill="black"/>
</g>
<defs>
<filter id="filter0_d_117_20826" x="-2" y="0" width="32" height="32" filterUnits="userSpaceOnUse" color-interpolation-filters="sRGB">
<feFlood flood-opacity="0" result="BackgroundImageFix"/>
<feColorMatrix in="SourceAlpha" type="matrix" values="0 0 0 0 0 0 0 0 0 0 0 0 0 0 0 0 0 0 127 0" result="hardAlpha"/>
<feOffset dy="4"/>
<feGaussianBlur stdDeviation="2"/>
<feComposite in2="hardAlpha" operator="out"/>
<feColorMatrix type="matrix" values="0 0 0 0 0 0 0 0 0 0 0 0 0 0 0 0 0 0 0.25 0"/>
<feBlend mode="normal" in2="BackgroundImageFix" result="effect1_dropShadow_117_20826"/>
<feBlend mode="normal" in="SourceGraphic" in2="effect1_dropShadow_117_20826" result="shape"/>
</filter>
</defs>
</svg>
