<svg width="26" height="29" viewBox="0 0 26 29" fill="none" xmlns="http://www.w3.org/2000/svg">
<g filter="url(#filter0_d_74_19555)">
<path fill-rule="evenodd" clip-rule="evenodd" d="M13 21C17.9706 21 22 16.9706 22 12C22 7.02944 17.9706 3 13 3C8.02944 3 4 7.02944 4 12C4 16.9706 8.02944 21 13 21ZM17.2803 10.2803C17.5732 9.98744 17.5732 9.51256 17.2803 9.21967C16.9874 8.92678 16.5126 8.92678 16.2197 9.21967L11.5 13.9393L9.78033 12.2197C9.48744 11.9268 9.01256 11.9268 8.71967 12.2197C8.42678 12.5126 8.42678 12.9874 8.71967 13.2803L10.9697 15.5303C11.2626 15.8232 11.7374 15.8232 12.0303 15.5303L17.2803 10.2803Z" fill="black"/>
</g>
<defs>
<filter id="filter0_d_74_19555" x="-3" y="0" width="32" height="32" filterUnits="userSpaceOnUse" color-interpolation-filters="sRGB">
<feFlood flood-opacity="0" result="BackgroundImageFix"/>
<feColorMatrix in="SourceAlpha" type="matrix" values="0 0 0 0 0 0 0 0 0 0 0 0 0 0 0 0 0 0 127 0" result="hardAlpha"/>
<feOffset dy="4"/>
<feGaussianBlur stdDeviation="2"/>
<feComposite in2="hardAlpha" operator="out"/>
<feColorMatrix type="matrix" values="0 0 0 0 0 0 0 0 0 0 0 0 0 0 0 0 0 0 0.25 0"/>
<feBlend mode="normal" in2="BackgroundImageFix" result="effect1_dropShadow_74_19555"/>
<feBlend mode="normal" in="SourceGraphic" in2="effect1_dropShadow_74_19555" result="shape"/>
</filter>
</defs>
</svg>
