<svg width="24" height="20" viewBox="0 0 24 20" fill="none" xmlns="http://www.w3.org/2000/svg">
<g filter="url(#filter0_d_2013_45683)">
<path fill-rule="evenodd" clip-rule="evenodd" d="M19.5303 5.28033C19.8232 4.98744 19.8232 4.51256 19.5303 4.21967C19.2374 3.92678 18.7626 3.92678 18.4697 4.21967L12.75 9.93934L10.0303 7.21967C9.73744 6.92678 9.26256 6.92678 8.96967 7.21967C8.67678 7.51256 8.67678 7.98744 8.96967 8.28033L12.2197 11.5303C12.5126 11.8232 12.9874 11.8232 13.2803 11.5303L19.5303 5.28033ZM15.0303 5.53033C15.3232 5.23744 15.3232 4.76256 15.0303 4.46967C14.7374 4.17678 14.2626 4.17678 13.9697 4.46967L12.2197 6.21967C11.9268 6.51256 11.9268 6.98744 12.2197 7.28033C12.5126 7.57322 12.9874 7.57322 13.2803 7.28033L15.0303 5.53033ZM5.78033 7.21967C5.48744 6.92678 5.01256 6.92678 4.71967 7.21967C4.42678 7.51256 4.42678 7.98744 4.71967 8.28033L7.96967 11.5303C8.26256 11.8232 8.73744 11.8232 9.03033 11.5303C9.32322 11.2374 9.32322 10.7626 9.03033 10.4697L5.78033 7.21967Z" fill="black"/>
</g>
<defs>
<filter id="filter0_d_2013_45683" x="0" y="0" width="24" height="24" filterUnits="userSpaceOnUse" color-interpolation-filters="sRGB">
<feFlood flood-opacity="0" result="BackgroundImageFix"/>
<feColorMatrix in="SourceAlpha" type="matrix" values="0 0 0 0 0 0 0 0 0 0 0 0 0 0 0 0 0 0 127 0" result="hardAlpha"/>
<feOffset dy="4"/>
<feGaussianBlur stdDeviation="2"/>
<feComposite in2="hardAlpha" operator="out"/>
<feColorMatrix type="matrix" values="0 0 0 0 0 0 0 0 0 0 0 0 0 0 0 0 0 0 0.25 0"/>
<feBlend mode="normal" in2="BackgroundImageFix" result="effect1_dropShadow_2013_45683"/>
<feBlend mode="normal" in="SourceGraphic" in2="effect1_dropShadow_2013_45683" result="shape"/>
</filter>
</defs>
</svg>
