<svg width="21" height="23" viewBox="0 0 21 23" fill="none" xmlns="http://www.w3.org/2000/svg">
<g filter="url(#filter0_d_501_10131)">
<path fill-rule="evenodd" clip-rule="evenodd" d="M12.65 1.5H12.681C13.2847 1.49999 13.783 1.49998 14.1889 1.53315C14.6104 1.56759 14.998 1.64151 15.362 1.82698C15.9265 2.1146 16.3854 2.57354 16.673 3.13803C16.8585 3.50203 16.9324 3.88956 16.9669 4.31113C17 4.71703 17 5.21529 17 5.81901V5.81903V5.85V10.15V10.181V10.181C17 10.7847 17 11.283 16.9669 11.6889C16.9324 12.1104 16.8585 12.498 16.673 12.862C16.3854 13.4265 15.9265 13.8854 15.362 14.173C14.998 14.3585 14.6104 14.4324 14.1889 14.4669C13.783 14.5 13.2847 14.5 12.681 14.5H12.681H12.65H11.75C11.3358 14.5 11 14.1642 11 13.75C11 13.3358 11.3358 13 11.75 13H12.65C13.2924 13 13.7292 12.9994 14.0667 12.9718C14.3955 12.945 14.5637 12.8963 14.681 12.8365C14.9632 12.6927 15.1927 12.4632 15.3365 12.181C15.3963 12.0637 15.445 11.8955 15.4718 11.5667C15.4994 11.2292 15.5 10.7924 15.5 10.15V5.85C15.5 5.20757 15.4994 4.77085 15.4718 4.43328C15.445 4.10447 15.3963 3.93631 15.3365 3.81901C15.1927 3.53677 14.9632 3.3073 14.681 3.16349C14.5637 3.10372 14.3955 3.05503 14.0667 3.02816C13.7292 3.00058 13.2924 3 12.65 3H11.75C11.3358 3 11 2.66421 11 2.25C11 1.83579 11.3358 1.5 11.75 1.5H12.65ZM9.78033 4.46967C9.48744 4.17678 9.01256 4.17678 8.71967 4.46967C8.42678 4.76256 8.42678 5.23744 8.71967 5.53033L10.4393 7.25H4.75C4.33579 7.25 4 7.58579 4 8C4 8.41421 4.33579 8.75 4.75 8.75H10.4393L8.71967 10.4697C8.42678 10.7626 8.42678 11.2374 8.71967 11.5303C9.01256 11.8232 9.48744 11.8232 9.78033 11.5303L12.7803 8.53033C13.0732 8.23744 13.0732 7.76256 12.7803 7.46967L9.78033 4.46967Z" fill="black"/>
</g>
<defs>
<filter id="filter0_d_501_10131" x="-1" y="0" width="24" height="24" filterUnits="userSpaceOnUse" color-interpolation-filters="sRGB">
<feFlood flood-opacity="0" result="BackgroundImageFix"/>
<feColorMatrix in="SourceAlpha" type="matrix" values="0 0 0 0 0 0 0 0 0 0 0 0 0 0 0 0 0 0 127 0" result="hardAlpha"/>
<feOffset dy="4"/>
<feGaussianBlur stdDeviation="2"/>
<feComposite in2="hardAlpha" operator="out"/>
<feColorMatrix type="matrix" values="0 0 0 0 0 0 0 0 0 0 0 0 0 0 0 0 0 0 0.25 0"/>
<feBlend mode="normal" in2="BackgroundImageFix" result="effect1_dropShadow_501_10131"/>
<feBlend mode="normal" in="SourceGraphic" in2="effect1_dropShadow_501_10131" result="shape"/>
</filter>
</defs>
</svg>
