<svg width="27" height="29" viewBox="0 0 27 29" fill="none" xmlns="http://www.w3.org/2000/svg">
<g filter="url(#filter0_d_44_12848)">
<path fill-rule="evenodd" clip-rule="evenodd" d="M11.15 3H11.117H11.117C10.0249 2.99999 9.15936 2.99999 8.46173 3.05699C7.74835 3.11527 7.14472 3.23688 6.59355 3.51772C5.69978 3.97312 4.97312 4.69978 4.51772 5.59355C4.23688 6.14472 4.11527 6.74834 4.05699 7.46173C3.99999 8.15935 3.99999 9.02485 4 10.117V10.117V10.15V13.85V13.883V13.883C3.99999 14.9752 3.99999 15.8406 4.05699 16.5383C4.11527 17.2517 4.23688 17.8553 4.51772 18.4065C4.97312 19.3002 5.69978 20.0269 6.59355 20.4823C7.14472 20.7631 7.74835 20.8847 8.46173 20.943C9.15935 21 10.0248 21 11.117 21H11.15H14.25C14.6642 21 15 20.6642 15 20.25C15 19.8358 14.6642 19.5 14.25 19.5H11.15C10.0175 19.5 9.21327 19.4994 8.58388 19.448C7.96325 19.3973 7.579 19.3009 7.27453 19.1458C6.663 18.8342 6.16582 18.337 5.85423 17.7255C5.69909 17.421 5.60271 17.0367 5.55201 16.4161C5.50058 15.7867 5.5 14.9825 5.5 13.85V10.15C5.5 9.01752 5.50058 8.21327 5.55201 7.58388C5.60271 6.96325 5.69909 6.579 5.85423 6.27453C6.16582 5.663 6.663 5.16582 7.27453 4.85423C7.579 4.69909 7.96325 4.60271 8.58388 4.55201C9.21327 4.50058 10.0175 4.5 11.15 4.5H14.25C14.6642 4.5 15 4.16421 15 3.75C15 3.33579 14.6642 3 14.25 3H11.15ZM18.5303 7.21967C18.2374 6.92678 17.7626 6.92678 17.4697 7.21967C17.1768 7.51256 17.1768 7.98744 17.4697 8.28033L20.4393 11.25H9.75C9.33579 11.25 9 11.5858 9 12C9 12.4142 9.33579 12.75 9.75 12.75H20.4393L17.4697 15.7197C17.1768 16.0126 17.1768 16.4874 17.4697 16.7803C17.7626 17.0732 18.2374 17.0732 18.5303 16.7803L22.7803 12.5303C23.0732 12.2374 23.0732 11.7626 22.7803 11.4697L18.5303 7.21967Z" fill="black"/>
</g>
<defs>
<filter id="filter0_d_44_12848" x="-3" y="0" width="32" height="32" filterUnits="userSpaceOnUse" color-interpolation-filters="sRGB">
<feFlood flood-opacity="0" result="BackgroundImageFix"/>
<feColorMatrix in="SourceAlpha" type="matrix" values="0 0 0 0 0 0 0 0 0 0 0 0 0 0 0 0 0 0 127 0" result="hardAlpha"/>
<feOffset dy="4"/>
<feGaussianBlur stdDeviation="2"/>
<feComposite in2="hardAlpha" operator="out"/>
<feColorMatrix type="matrix" values="0 0 0 0 0 0 0 0 0 0 0 0 0 0 0 0 0 0 0.25 0"/>
<feBlend mode="normal" in2="BackgroundImageFix" result="effect1_dropShadow_44_12848"/>
<feBlend mode="normal" in="SourceGraphic" in2="effect1_dropShadow_44_12848" result="shape"/>
</filter>
</defs>
</svg>
