<svg width="26" height="29" viewBox="0 0 26 29" fill="none" xmlns="http://www.w3.org/2000/svg">
<g filter="url(#filter0_d_427_12429)">
<circle cx="13" cy="12" r="9" fill="#F59931"/>
<path fill-rule="evenodd" clip-rule="evenodd" d="M12.0384 7.99926L12.2212 12.7506C12.2373 13.169 12.5812 13.5 13 13.5C13.4188 13.5 13.7627 13.169 13.7788 12.7506L13.9616 7.99926C13.9825 7.45371 13.546 7 13 7C12.454 7 12.0175 7.45371 12.0384 7.99926ZM13 17C13.5523 17 14 16.5523 14 16C14 15.4477 13.5523 15 13 15C12.4477 15 12 15.4477 12 16C12 16.5523 12.4477 17 13 17Z" fill="white"/>
</g>
<defs>
<filter id="filter0_d_427_12429" x="-3" y="0" width="32" height="32" filterUnits="userSpaceOnUse" color-interpolation-filters="sRGB">
<feFlood flood-opacity="0" result="BackgroundImageFix"/>
<feColorMatrix in="SourceAlpha" type="matrix" values="0 0 0 0 0 0 0 0 0 0 0 0 0 0 0 0 0 0 127 0" result="hardAlpha"/>
<feOffset dy="4"/>
<feGaussianBlur stdDeviation="2"/>
<feComposite in2="hardAlpha" operator="out"/>
<feColorMatrix type="matrix" values="0 0 0 0 0 0 0 0 0 0 0 0 0 0 0 0 0 0 0.25 0"/>
<feBlend mode="normal" in2="BackgroundImageFix" result="effect1_dropShadow_427_12429"/>
<feBlend mode="normal" in="SourceGraphic" in2="effect1_dropShadow_427_12429" result="shape"/>
</filter>
</defs>
</svg>
