<svg width="21" height="23" viewBox="0 0 21 23" fill="none" xmlns="http://www.w3.org/2000/svg">
<g filter="url(#filter0_d_501_10109)">
<path fill-rule="evenodd" clip-rule="evenodd" d="M8.35 1.5H8.31903C7.7153 1.49999 7.21703 1.49998 6.81113 1.53315C6.38956 1.56759 6.00203 1.64151 5.63803 1.82698C5.07354 2.1146 4.6146 2.57354 4.32698 3.13803C4.14151 3.50203 4.06759 3.88956 4.03315 4.31113C3.99998 4.71703 3.99999 5.21529 4 5.81901V5.81903V5.85V10.15V10.181V10.181C3.99999 10.7847 3.99998 11.283 4.03315 11.6889C4.06759 12.1104 4.14151 12.498 4.32698 12.862C4.6146 13.4265 5.07354 13.8854 5.63803 14.173C6.00203 14.3585 6.38956 14.4324 6.81113 14.4669C7.21701 14.5 7.71527 14.5 8.31897 14.5H8.31901H8.35H9.25C9.66421 14.5 10 14.1642 10 13.75C10 13.3358 9.66421 13 9.25 13H8.35C7.70757 13 7.27085 12.9994 6.93328 12.9718C6.60447 12.945 6.43631 12.8963 6.31901 12.8365C6.03677 12.6927 5.8073 12.4632 5.66349 12.181C5.60372 12.0637 5.55503 11.8955 5.52816 11.5667C5.50058 11.2292 5.5 10.7924 5.5 10.15V5.85C5.5 5.20757 5.50058 4.77085 5.52816 4.43328C5.55503 4.10447 5.60372 3.93631 5.66349 3.81901C5.8073 3.53677 6.03677 3.3073 6.31901 3.16349C6.43631 3.10372 6.60447 3.05503 6.93328 3.02816C7.27085 3.00058 7.70757 3 8.35 3H9.25C9.66421 3 10 2.66421 10 2.25C10 1.83579 9.66421 1.5 9.25 1.5H8.35ZM13.7803 4.46967C13.4874 4.17678 13.0126 4.17678 12.7197 4.46967C12.4268 4.76256 12.4268 5.23744 12.7197 5.53033L14.4393 7.25H8.75C8.33579 7.25 8 7.58579 8 8C8 8.41421 8.33579 8.75 8.75 8.75H14.4393L12.7197 10.4697C12.4268 10.7626 12.4268 11.2374 12.7197 11.5303C13.0126 11.8232 13.4874 11.8232 13.7803 11.5303L16.7803 8.53033C17.0732 8.23744 17.0732 7.76256 16.7803 7.46967L13.7803 4.46967Z" fill="black"/>
</g>
<defs>
<filter id="filter0_d_501_10109" x="-2" y="0" width="24" height="24" filterUnits="userSpaceOnUse" color-interpolation-filters="sRGB">
<feFlood flood-opacity="0" result="BackgroundImageFix"/>
<feColorMatrix in="SourceAlpha" type="matrix" values="0 0 0 0 0 0 0 0 0 0 0 0 0 0 0 0 0 0 127 0" result="hardAlpha"/>
<feOffset dy="4"/>
<feGaussianBlur stdDeviation="2"/>
<feComposite in2="hardAlpha" operator="out"/>
<feColorMatrix type="matrix" values="0 0 0 0 0 0 0 0 0 0 0 0 0 0 0 0 0 0 0.25 0"/>
<feBlend mode="normal" in2="BackgroundImageFix" result="effect1_dropShadow_501_10109"/>
<feBlend mode="normal" in="SourceGraphic" in2="effect1_dropShadow_501_10109" result="shape"/>
</filter>
</defs>
</svg>
