<svg width="22" height="23" viewBox="0 0 22 23" fill="none" xmlns="http://www.w3.org/2000/svg">
<g filter="url(#filter0_d_239_7176)">
<path fill-rule="evenodd" clip-rule="evenodd" d="M18 8C18 11.866 14.866 15 11 15C7.13401 15 4 11.866 4 8C4 4.13401 7.13401 1 11 1C14.866 1 18 4.13401 18 8ZM12 11C12 11.5523 11.5523 12 11 12C10.4477 12 10 11.5523 10 11C10 10.4477 10.4477 10 11 10C11.5523 10 12 10.4477 12 11ZM11 4C10.456 4 10.0228 4.45542 10.0499 4.99875L10.2125 8.25094C10.2335 8.67055 10.5799 9 11 9C11.4201 9 11.7665 8.67055 11.7875 8.25094L11.9501 4.99875C11.9772 4.45541 11.544 4 11 4Z" fill="black"/>
</g>
<defs>
<filter id="filter0_d_239_7176" x="-1" y="0" width="24" height="24" filterUnits="userSpaceOnUse" color-interpolation-filters="sRGB">
<feFlood flood-opacity="0" result="BackgroundImageFix"/>
<feColorMatrix in="SourceAlpha" type="matrix" values="0 0 0 0 0 0 0 0 0 0 0 0 0 0 0 0 0 0 127 0" result="hardAlpha"/>
<feOffset dy="4"/>
<feGaussianBlur stdDeviation="2"/>
<feComposite in2="hardAlpha" operator="out"/>
<feColorMatrix type="matrix" values="0 0 0 0 0 0 0 0 0 0 0 0 0 0 0 0 0 0 0.25 0"/>
<feBlend mode="normal" in2="BackgroundImageFix" result="effect1_dropShadow_239_7176"/>
<feBlend mode="normal" in="SourceGraphic" in2="effect1_dropShadow_239_7176" result="shape"/>
</filter>
</defs>
</svg>
