<svg width="24" height="23" viewBox="0 0 24 23" fill="none" xmlns="http://www.w3.org/2000/svg">
<g filter="url(#filter0_d_500_10843)">
<path fill-rule="evenodd" clip-rule="evenodd" d="M12 5.00001C10.3431 5.00001 8.99998 6.34316 8.99998 8.00001C8.99998 9.65687 10.3431 11 12 11C13.6568 11 15 9.65687 15 8.00001C15 6.34316 13.6568 5.00001 12 5.00001ZM10.5 8.00001C10.5 7.17159 11.1716 6.50001 12 6.50001C12.8284 6.50001 13.5 7.17159 13.5 8.00001C13.5 8.82844 12.8284 9.50002 12 9.50002C11.1716 9.50002 10.5 8.82844 10.5 8.00001Z" fill="black"/>
<path fill-rule="evenodd" clip-rule="evenodd" d="M10.1228 0.99996C9.54094 0.999502 9.08378 0.999141 8.66215 1.13797C8.29149 1.26002 7.95104 1.45956 7.66345 1.72334C7.33631 2.02337 7.11325 2.42243 6.82934 2.93034L5.02317 6.15563C4.75037 6.6419 4.53596 7.0241 4.44935 7.44237C4.37317 7.81023 4.37317 8.1898 4.44935 8.55766C4.53596 8.97593 4.75037 9.35812 5.02317 9.8444L6.82934 13.0697C7.11325 13.5776 7.33631 13.9767 7.66345 14.2767C7.95104 14.5405 8.29149 14.74 8.66215 14.8621C9.08378 15.0009 9.54094 15.0005 10.1228 15.0001H13.8771C14.459 15.0005 14.9162 15.0009 15.3378 14.8621C15.7085 14.74 16.0489 14.5405 16.3365 14.2767C16.6637 13.9766 16.8867 13.5776 17.1706 13.0697L18.9768 9.84438C19.2496 9.35811 19.464 8.97592 19.5506 8.55765C19.6268 8.1898 19.6268 7.81023 19.5506 7.44238C19.464 7.02411 19.2496 6.64192 18.9768 6.15565L17.1706 2.93036C16.8867 2.42244 16.6637 2.02338 16.3365 1.72334C16.0489 1.45957 15.7085 1.26002 15.3378 1.13797C14.9162 0.999142 14.459 0.999502 13.8771 0.99996H10.1228ZM9.13129 2.56272C9.29457 2.50896 9.49141 2.50001 10.2256 2.50001H13.7744C14.5086 2.50001 14.7054 2.50896 14.8687 2.56272C15.0372 2.6182 15.1919 2.7089 15.3226 2.8288C15.4493 2.945 15.5533 3.11237 15.912 3.75294L17.62 6.80294C17.9634 7.41613 18.0482 7.58446 18.0817 7.74654C18.1164 7.91375 18.1164 8.08628 18.0817 8.25349C18.0482 8.41557 17.9634 8.5839 17.62 9.19709L15.912 12.2471C15.5533 12.8877 15.4493 13.055 15.3226 13.1712C15.1919 13.2911 15.0372 13.3818 14.8687 13.4373C14.7054 13.4911 14.5086 13.5 13.7744 13.5H10.2256C9.4914 13.5 9.29457 13.4911 9.13129 13.4373C8.9628 13.3818 8.80805 13.2911 8.67733 13.1712C8.55064 13.055 8.44666 12.8877 8.08794 12.2471L6.37993 9.1971C6.03654 8.5839 5.95175 8.41558 5.91818 8.25349C5.88356 8.08628 5.88356 7.91375 5.91818 7.74654C5.95175 7.58445 6.03654 7.41612 6.37993 6.80293L8.08794 3.75293C8.44666 3.11236 8.55064 2.94499 8.67733 2.8288C8.80805 2.7089 8.9628 2.6182 9.13129 2.56272Z" fill="black"/>
</g>
<defs>
<filter id="filter0_d_500_10843" x="0" y="0" width="24" height="24" filterUnits="userSpaceOnUse" color-interpolation-filters="sRGB">
<feFlood flood-opacity="0" result="BackgroundImageFix"/>
<feColorMatrix in="SourceAlpha" type="matrix" values="0 0 0 0 0 0 0 0 0 0 0 0 0 0 0 0 0 0 127 0" result="hardAlpha"/>
<feOffset dy="4"/>
<feGaussianBlur stdDeviation="2"/>
<feComposite in2="hardAlpha" operator="out"/>
<feColorMatrix type="matrix" values="0 0 0 0 0 0 0 0 0 0 0 0 0 0 0 0 0 0 0.25 0"/>
<feBlend mode="normal" in2="BackgroundImageFix" result="effect1_dropShadow_500_10843"/>
<feBlend mode="normal" in="SourceGraphic" in2="effect1_dropShadow_500_10843" result="shape"/>
</filter>
</defs>
</svg>
