<svg width="22" height="23" viewBox="0 0 22 23" fill="none" xmlns="http://www.w3.org/2000/svg">
<g filter="url(#filter0_d_501_10271)">
<path fill-rule="evenodd" clip-rule="evenodd" d="M18 8C18 11.866 14.866 15 11 15C7.13401 15 4 11.866 4 8C4 4.13401 7.13401 1 11 1C14.866 1 18 4.13401 18 8ZM12.7339 8.75C12.6175 11.4328 11.8856 13.5 11 13.5C10.1144 13.5 9.38252 11.4328 9.26613 8.75H12.7339ZM14.2352 8.75C14.1815 10.0969 13.9838 11.3478 13.6668 12.3439C13.605 12.5381 13.5358 12.732 13.4579 12.9216C15.0486 12.1257 16.1996 10.5812 16.4493 8.75H14.2352ZM16.4493 7.25H14.2352C14.1815 5.90306 13.9838 4.65225 13.6668 3.65611C13.605 3.46195 13.5358 3.26799 13.4579 3.0784C15.0486 3.87435 16.1996 5.41878 16.4493 7.25ZM12.7339 7.25H9.26613C9.38251 4.56763 10.1142 2.5006 10.9996 2.5C11.8852 2.5 12.6175 4.56724 12.7339 7.25ZM7.76485 7.25C7.81852 5.90306 8.01622 4.65225 8.33317 3.65611C8.39495 3.46195 8.46421 3.268 8.54213 3.0784C6.95143 3.87435 5.8004 5.41878 5.55071 7.25H7.76485ZM5.55071 8.75C5.8004 10.5812 6.95143 12.1257 8.54213 12.9216C8.46421 12.732 8.39495 12.5381 8.33317 12.3439C8.01622 11.3478 7.81852 10.0969 7.76485 8.75H5.55071Z" fill="black"/>
</g>
<defs>
<filter id="filter0_d_501_10271" x="-1" y="0" width="24" height="24" filterUnits="userSpaceOnUse" color-interpolation-filters="sRGB">
<feFlood flood-opacity="0" result="BackgroundImageFix"/>
<feColorMatrix in="SourceAlpha" type="matrix" values="0 0 0 0 0 0 0 0 0 0 0 0 0 0 0 0 0 0 127 0" result="hardAlpha"/>
<feOffset dy="4"/>
<feGaussianBlur stdDeviation="2"/>
<feComposite in2="hardAlpha" operator="out"/>
<feColorMatrix type="matrix" values="0 0 0 0 0 0 0 0 0 0 0 0 0 0 0 0 0 0 0.25 0"/>
<feBlend mode="normal" in2="BackgroundImageFix" result="effect1_dropShadow_501_10271"/>
<feBlend mode="normal" in="SourceGraphic" in2="effect1_dropShadow_501_10271" result="shape"/>
</filter>
</defs>
</svg>
