<svg width="26" height="29" viewBox="0 0 26 29" fill="none" xmlns="http://www.w3.org/2000/svg">
<g filter="url(#filter0_d_41_12490)">
<path opacity="0.32" fill-rule="evenodd" clip-rule="evenodd" d="M4.54497 5.73005C4 6.79961 4 8.19974 4 11V13C4 15.8003 4 17.2004 4.54497 18.27C5.02433 19.2108 5.78924 19.9757 6.73005 20.455C7.79961 21 9.19974 21 12 21H14C16.8003 21 18.2004 21 19.27 20.455C20.2108 19.9757 20.9757 19.2108 21.455 18.27C22 17.2004 22 15.8003 22 13V11C22 8.19974 22 6.79961 21.455 5.73005C20.9757 4.78924 20.2108 4.02433 19.27 3.54497C18.2004 3 16.8003 3 14 3H12C9.19974 3 7.79961 3 6.73005 3.54497C5.78924 4.02433 5.02433 4.78924 4.54497 5.73005ZM5.88148 6.41103C5.5 7.15972 5.5 8.13982 5.5 10.1V13.9C5.5 15.8602 5.5 16.8403 5.88148 17.589C6.21703 18.2475 6.75247 18.783 7.41103 19.1185C8.15972 19.5 9.13982 19.5 11.1 19.5H14.9C16.8602 19.5 17.8403 19.5 18.589 19.1185C19.2475 18.783 19.783 18.2475 20.1185 17.589C20.5 16.8403 20.5 15.8602 20.5 13.9V10.1C20.5 8.13982 20.5 7.15972 20.1185 6.41103C19.783 5.75247 19.2475 5.21703 18.589 4.88148C17.8403 4.5 16.8602 4.5 14.9 4.5H11.1C9.13982 4.5 8.15972 4.5 7.41103 4.88148C6.75247 5.21703 6.21703 5.75247 5.88148 6.41103Z" fill="black"/>
<path d="M11.25 16.25L14.75 7.75" stroke="black" stroke-width="1.5" stroke-linecap="round"/>
</g>
<defs>
<filter id="filter0_d_41_12490" x="-3" y="0" width="32" height="32" filterUnits="userSpaceOnUse" color-interpolation-filters="sRGB">
<feFlood flood-opacity="0" result="BackgroundImageFix"/>
<feColorMatrix in="SourceAlpha" type="matrix" values="0 0 0 0 0 0 0 0 0 0 0 0 0 0 0 0 0 0 127 0" result="hardAlpha"/>
<feOffset dy="4"/>
<feGaussianBlur stdDeviation="2"/>
<feComposite in2="hardAlpha" operator="out"/>
<feColorMatrix type="matrix" values="0 0 0 0 0 0 0 0 0 0 0 0 0 0 0 0 0 0 0.25 0"/>
<feBlend mode="normal" in2="BackgroundImageFix" result="effect1_dropShadow_41_12490"/>
<feBlend mode="normal" in="SourceGraphic" in2="effect1_dropShadow_41_12490" result="shape"/>
</filter>
</defs>
</svg>
