<svg width="22" height="23" viewBox="0 0 22 23" fill="none" xmlns="http://www.w3.org/2000/svg">
<g filter="url(#filter0_d_2515_55330)">
<circle opacity="0.16" cx="11" cy="8" r="7" fill="#A0A6AD"/>
<path fill-rule="evenodd" clip-rule="evenodd" d="M11 6C11.5523 6 12 5.55228 12 5C12 4.44772 11.5523 4 11 4C10.4477 4 10 4.44772 10 5C10 5.55228 10.4477 6 11 6ZM11 7C10.5858 7 10.25 7.33579 10.25 7.75L10.25 11.25C10.25 11.6642 10.5858 12 11 12C11.4142 12 11.75 11.6642 11.75 11.25L11.75 7.75C11.75 7.33579 11.4142 7 11 7Z" fill="#A0A6AD"/>
</g>
<defs>
<filter id="filter0_d_2515_55330" x="-1" y="0" width="24" height="24" filterUnits="userSpaceOnUse" color-interpolation-filters="sRGB">
<feFlood flood-opacity="0" result="BackgroundImageFix"/>
<feColorMatrix in="SourceAlpha" type="matrix" values="0 0 0 0 0 0 0 0 0 0 0 0 0 0 0 0 0 0 127 0" result="hardAlpha"/>
<feOffset dy="4"/>
<feGaussianBlur stdDeviation="2"/>
<feComposite in2="hardAlpha" operator="out"/>
<feColorMatrix type="matrix" values="0 0 0 0 0 0 0 0 0 0 0 0 0 0 0 0 0 0 0.25 0"/>
<feBlend mode="normal" in2="BackgroundImageFix" result="effect1_dropShadow_2515_55330"/>
<feBlend mode="normal" in="SourceGraphic" in2="effect1_dropShadow_2515_55330" result="shape"/>
</filter>
</defs>
</svg>
