<svg width="22" height="23" viewBox="0 0 22 23" fill="none" xmlns="http://www.w3.org/2000/svg">
<g filter="url(#filter0_d_1630_52783)">
<path fill-rule="evenodd" clip-rule="evenodd" d="M18 8C18 11.866 14.866 15 11 15C7.13401 15 4 11.866 4 8C4 4.13401 7.13401 1 11 1C14.866 1 18 4.13401 18 8ZM12 5C12 5.55228 11.5523 6 11 6C10.4477 6 10 5.55228 10 5C10 4.44772 10.4477 4 11 4C11.5523 4 12 4.44772 12 5ZM11 7C10.5582 7 10.2 7.35817 10.2 7.8L10.2 11.45C10.2 11.8918 10.5582 12.25 11 12.25C11.4418 12.25 11.8 11.8918 11.8 11.45L11.8 7.8C11.8 7.35817 11.4418 7 11 7Z" fill="black"/>
</g>
<defs>
<filter id="filter0_d_1630_52783" x="-1" y="0" width="24" height="24" filterUnits="userSpaceOnUse" color-interpolation-filters="sRGB">
<feFlood flood-opacity="0" result="BackgroundImageFix"/>
<feColorMatrix in="SourceAlpha" type="matrix" values="0 0 0 0 0 0 0 0 0 0 0 0 0 0 0 0 0 0 127 0" result="hardAlpha"/>
<feOffset dy="4"/>
<feGaussianBlur stdDeviation="2"/>
<feComposite in2="hardAlpha" operator="out"/>
<feColorMatrix type="matrix" values="0 0 0 0 0 0 0 0 0 0 0 0 0 0 0 0 0 0 0.25 0"/>
<feBlend mode="normal" in2="BackgroundImageFix" result="effect1_dropShadow_1630_52783"/>
<feBlend mode="normal" in="SourceGraphic" in2="effect1_dropShadow_1630_52783" result="shape"/>
</filter>
</defs>
</svg>
