<svg width="56" height="58" viewBox="0 0 56 58" fill="none" xmlns="http://www.w3.org/2000/svg">
<g filter="url(#filter0_d_121_24401)">
<path fill-rule="evenodd" clip-rule="evenodd" d="M18.8 7.5H37.2C39.465 7.5 41.0735 7.50117 42.3322 7.60401C43.5735 7.70543 44.342 7.89818 44.9509 8.20846C46.174 8.83163 47.1684 9.82601 47.7915 11.0491C48.1018 11.658 48.2946 12.4265 48.396 13.6678C48.4988 14.9265 48.5 16.535 48.5 18.8V37.2L48.5 37.4393L42.8588 31.7981C41.0038 29.9431 37.9962 29.9431 36.1412 31.7981L34.5 33.4393L24.3588 23.2981C22.5038 21.4431 19.4962 21.4431 17.6412 23.2981L7.5 33.4393V18.8C7.5 16.535 7.50117 14.9265 7.60401 13.6678C7.70543 12.4265 7.89818 11.658 8.20846 11.0491C8.83163 9.82601 9.82601 8.83163 11.0491 8.20846C11.658 7.89818 12.4265 7.70543 13.6678 7.60401C14.9265 7.50117 16.535 7.5 18.8 7.5ZM48.4697 39.5303C48.4775 39.5382 48.4855 39.5458 48.4936 39.5533C48.4839 40.658 48.459 41.5608 48.396 42.3322C48.2946 43.5735 48.1018 44.342 47.7915 44.9509C47.1684 46.174 46.174 47.1684 44.9509 47.7915C44.342 48.1018 43.5735 48.2946 42.3322 48.396C41.0735 48.4988 39.465 48.5 37.2 48.5H18.8C16.535 48.5 14.9265 48.4988 13.6678 48.396C12.4265 48.2946 11.658 48.1018 11.0491 47.7915C9.82601 47.1684 8.83163 46.174 8.20846 44.9509C7.89818 44.342 7.70543 43.5735 7.60401 42.3322C7.50117 41.0735 7.5 39.465 7.5 37.2V35.559C7.51031 35.5498 7.52042 35.5402 7.53033 35.5303L18.7019 24.3588C19.9711 23.0896 22.0289 23.0896 23.2981 24.3588L33.4393 34.5L29.4697 38.4697C29.1768 38.7626 29.1768 39.2374 29.4697 39.5303C29.7626 39.8232 30.2374 39.8232 30.5303 39.5303L35.0295 35.0312L35.0303 35.0303L35.0312 35.0295L37.2019 32.8588C38.4711 31.5896 40.5289 31.5896 41.7981 32.8588L48.4697 39.5303ZM6 18.8C6 14.3196 6 12.0794 6.87195 10.3681C7.63893 8.86278 8.86278 7.63893 10.3681 6.87195C12.0794 6 14.3196 6 18.8 6H37.2C41.6804 6 43.9206 6 45.6319 6.87195C47.1372 7.63893 48.3611 8.86278 49.1281 10.3681C50 12.0794 50 14.3196 50 18.8V37.2C50 41.6804 50 43.9206 49.1281 45.6319C48.3611 47.1372 47.1372 48.3611 45.6319 49.1281C43.9206 50 41.6804 50 37.2 50H18.8C14.3196 50 12.0794 50 10.3681 49.1281C8.86278 48.3611 7.63893 47.1372 6.87195 45.6319C6 43.9206 6 41.6804 6 37.2V18.8ZM40.5 19C40.5 20.933 38.933 22.5 37 22.5C35.067 22.5 33.5 20.933 33.5 19C33.5 17.067 35.067 15.5 37 15.5C38.933 15.5 40.5 17.067 40.5 19ZM42 19C42 21.7614 39.7614 24 37 24C34.2386 24 32 21.7614 32 19C32 16.2386 34.2386 14 37 14C39.7614 14 42 16.2386 42 19Z" fill="black"/>
</g>
<defs>
<filter id="filter0_d_121_24401" x="-4" y="0" width="64" height="64" filterUnits="userSpaceOnUse" color-interpolation-filters="sRGB">
<feFlood flood-opacity="0" result="BackgroundImageFix"/>
<feColorMatrix in="SourceAlpha" type="matrix" values="0 0 0 0 0 0 0 0 0 0 0 0 0 0 0 0 0 0 127 0" result="hardAlpha"/>
<feOffset dy="4"/>
<feGaussianBlur stdDeviation="2"/>
<feComposite in2="hardAlpha" operator="out"/>
<feColorMatrix type="matrix" values="0 0 0 0 0 0 0 0 0 0 0 0 0 0 0 0 0 0 0.25 0"/>
<feBlend mode="normal" in2="BackgroundImageFix" result="effect1_dropShadow_121_24401"/>
<feBlend mode="normal" in="SourceGraphic" in2="effect1_dropShadow_121_24401" result="shape"/>
</filter>
</defs>
</svg>
