<svg width="22" height="23" viewBox="0 0 22 23" fill="none" xmlns="http://www.w3.org/2000/svg">
<g filter="url(#filter0_d_2155_57113)">
<path fill-rule="evenodd" clip-rule="evenodd" d="M11 13.5C14.0376 13.5 16.5 11.0376 16.5 8C16.5 4.96243 14.0376 2.5 11 2.5C7.96243 2.5 5.5 4.96243 5.5 8C5.5 11.0376 7.96243 13.5 11 13.5ZM11 15C14.866 15 18 11.866 18 8C18 4.13401 14.866 1 11 1C7.13401 1 4 4.13401 4 8C4 11.866 7.13401 15 11 15ZM12 5.00089C12 5.55317 11.5523 6.00089 11 6.00089C10.4477 6.00089 10 5.55317 10 5.00089C10 4.4486 10.4477 4.00089 11 4.00089C11.5523 4.00089 12 4.4486 12 5.00089ZM11 7C10.5858 7 10.25 7.33579 10.25 7.75L10.25 11.25C10.25 11.6642 10.5858 12 11 12C11.4142 12 11.75 11.6642 11.75 11.25L11.75 7.75C11.75 7.33579 11.4142 7 11 7Z" fill="black"/>
</g>
<defs>
<filter id="filter0_d_2155_57113" x="-1" y="0" width="24" height="24" filterUnits="userSpaceOnUse" color-interpolation-filters="sRGB">
<feFlood flood-opacity="0" result="BackgroundImageFix"/>
<feColorMatrix in="SourceAlpha" type="matrix" values="0 0 0 0 0 0 0 0 0 0 0 0 0 0 0 0 0 0 127 0" result="hardAlpha"/>
<feOffset dy="4"/>
<feGaussianBlur stdDeviation="2"/>
<feComposite in2="hardAlpha" operator="out"/>
<feColorMatrix type="matrix" values="0 0 0 0 0 0 0 0 0 0 0 0 0 0 0 0 0 0 0.25 0"/>
<feBlend mode="normal" in2="BackgroundImageFix" result="effect1_dropShadow_2155_57113"/>
<feBlend mode="normal" in="SourceGraphic" in2="effect1_dropShadow_2155_57113" result="shape"/>
</filter>
</defs>
</svg>
