<svg width="28" height="30" viewBox="0 0 28 30" fill="none" xmlns="http://www.w3.org/2000/svg">
<g filter="url(#filter0_d_45_12531)">
<path fill-rule="evenodd" clip-rule="evenodd" d="M22 12C22 13.9391 21.3101 15.717 20.1624 17.1018L17.6681 14.6074C18.1919 13.8718 18.5 12.9719 18.5 12C18.5 11.0281 18.1919 10.1282 17.6681 9.3926L20.1624 6.89824C21.3101 8.28299 22 10.0609 22 12ZM19.1018 5.83758C17.717 4.68988 15.9391 4 14 4C12.0609 4 10.283 4.68988 8.89824 5.83758L11.3926 8.33194C12.1282 7.80809 13.0281 7.5 14 7.5C14.9719 7.5 15.8718 7.80809 16.6074 8.33194L19.1018 5.83758ZM14 20C15.9391 20 17.717 19.3101 19.1018 18.1624L16.6074 15.6681C15.8718 16.1919 14.9719 16.5 14 16.5C13.0281 16.5 12.1282 16.1919 11.3926 15.6681L8.89824 18.1624C10.283 19.3101 12.0609 20 14 20ZM7.83758 17.1018C6.68988 15.717 6 13.9391 6 12C6 10.0609 6.68988 8.28299 7.83758 6.89824L10.3319 9.3926C9.80809 10.1282 9.5 11.0281 9.5 12C9.5 12.9719 9.80809 13.8718 10.3319 14.6074L7.83758 17.1018ZM23.5 12C23.5 17.2467 19.2467 21.5 14 21.5C8.75329 21.5 4.5 17.2467 4.5 12C4.5 6.75329 8.75329 2.5 14 2.5C19.2467 2.5 23.5 6.75329 23.5 12ZM17 12C17 13.6569 15.6569 15 14 15C12.3431 15 11 13.6569 11 12C11 10.3431 12.3431 9 14 9C15.6569 9 17 10.3431 17 12Z" fill="black"/>
</g>
<defs>
<filter id="filter0_d_45_12531" x="-2" y="0" width="32" height="32" filterUnits="userSpaceOnUse" color-interpolation-filters="sRGB">
<feFlood flood-opacity="0" result="BackgroundImageFix"/>
<feColorMatrix in="SourceAlpha" type="matrix" values="0 0 0 0 0 0 0 0 0 0 0 0 0 0 0 0 0 0 127 0" result="hardAlpha"/>
<feOffset dy="4"/>
<feGaussianBlur stdDeviation="2"/>
<feComposite in2="hardAlpha" operator="out"/>
<feColorMatrix type="matrix" values="0 0 0 0 0 0 0 0 0 0 0 0 0 0 0 0 0 0 0.25 0"/>
<feBlend mode="normal" in2="BackgroundImageFix" result="effect1_dropShadow_45_12531"/>
<feBlend mode="normal" in="SourceGraphic" in2="effect1_dropShadow_45_12531" result="shape"/>
</filter>
</defs>
</svg>
