<svg width="22" height="23" viewBox="0 0 22 23" fill="none" xmlns="http://www.w3.org/2000/svg">
<g filter="url(#filter0_d_45_13584)">
<path fill-rule="evenodd" clip-rule="evenodd" d="M11 2.5C7.96243 2.5 5.5 4.96243 5.5 8C5.5 11.0376 7.96243 13.5 11 13.5C14.0376 13.5 16.5 11.0376 16.5 8C16.5 7.58579 16.8358 7.25 17.25 7.25C17.6642 7.25 18 7.58579 18 8C18 11.866 14.866 15 11 15C7.13401 15 4 11.866 4 8C4 4.13401 7.13401 1 11 1C11.4142 1 11.75 1.33579 11.75 1.75C11.75 2.16421 11.4142 2.5 11 2.5Z" fill="black"/>
</g>
<defs>
<filter id="filter0_d_45_13584" x="-1" y="0" width="24" height="24" filterUnits="userSpaceOnUse" color-interpolation-filters="sRGB">
<feFlood flood-opacity="0" result="BackgroundImageFix"/>
<feColorMatrix in="SourceAlpha" type="matrix" values="0 0 0 0 0 0 0 0 0 0 0 0 0 0 0 0 0 0 127 0" result="hardAlpha"/>
<feOffset dy="4"/>
<feGaussianBlur stdDeviation="2"/>
<feComposite in2="hardAlpha" operator="out"/>
<feColorMatrix type="matrix" values="0 0 0 0 0 0 0 0 0 0 0 0 0 0 0 0 0 0 0.25 0"/>
<feBlend mode="normal" in2="BackgroundImageFix" result="effect1_dropShadow_45_13584"/>
<feBlend mode="normal" in="SourceGraphic" in2="effect1_dropShadow_45_13584" result="shape"/>
</filter>
</defs>
</svg>
