<svg width="26" height="29" viewBox="0 0 26 29" fill="none" xmlns="http://www.w3.org/2000/svg">
<g filter="url(#filter0_d_699_36489)">
<path fill-rule="evenodd" clip-rule="evenodd" d="M4 12C4 7.02944 8.02944 3 13 3C17.9706 3 22 7.02944 22 12C22 16.9706 17.9706 21 13 21C8.02944 21 4 16.9706 4 12ZM5.5 12C5.5 7.85786 8.85786 4.5 13 4.5C17.1421 4.5 20.5 7.85786 20.5 12C20.5 16.1421 17.1421 19.5 13 19.5C8.85786 19.5 5.5 16.1421 5.5 12ZM9.25 11.25C8.83579 11.25 8.5 11.5858 8.5 12C8.5 12.4142 8.83579 12.75 9.25 12.75H13H16.75C17.1642 12.75 17.5 12.4142 17.5 12C17.5 11.5858 17.1642 11.25 16.75 11.25H13H9.25Z" fill="black"/>
</g>
<defs>
<filter id="filter0_d_699_36489" x="-3" y="0" width="32" height="32" filterUnits="userSpaceOnUse" color-interpolation-filters="sRGB">
<feFlood flood-opacity="0" result="BackgroundImageFix"/>
<feColorMatrix in="SourceAlpha" type="matrix" values="0 0 0 0 0 0 0 0 0 0 0 0 0 0 0 0 0 0 127 0" result="hardAlpha"/>
<feOffset dy="4"/>
<feGaussianBlur stdDeviation="2"/>
<feComposite in2="hardAlpha" operator="out"/>
<feColorMatrix type="matrix" values="0 0 0 0 0 0 0 0 0 0 0 0 0 0 0 0 0 0 0.25 0"/>
<feBlend mode="normal" in2="BackgroundImageFix" result="effect1_dropShadow_699_36489"/>
<feBlend mode="normal" in="SourceGraphic" in2="effect1_dropShadow_699_36489" result="shape"/>
</filter>
</defs>
</svg>
