<svg width="28" height="31" viewBox="0 0 28 31" fill="none" xmlns="http://www.w3.org/2000/svg">
<g filter="url(#filter0_d_2368_51857)">
<path fill-rule="evenodd" clip-rule="evenodd" d="M4.43597 6.18404C4 7.03969 4 8.15979 4 10.4V17V18.7648V20H4.00705C4.02176 20.7153 4.06718 21.1498 4.20744 21.4333C4.63193 22.2912 5.60476 22.728 6.52798 22.4754C6.97913 22.3519 7.53949 21.8538 8.66022 20.8576L9.625 20H17.6C19.8402 20 20.9603 20 21.816 19.564C22.5686 19.1805 23.1805 18.5686 23.564 17.816C24 16.9603 24 15.8402 24 13.6V10.4C24 8.15979 24 7.03969 23.564 6.18404C23.1805 5.43139 22.5686 4.81947 21.816 4.43597C20.9603 4 19.8402 4 17.6 4H10.4C8.15979 4 7.03969 4 6.18404 4.43597C5.43139 4.81947 4.81947 5.43139 4.43597 6.18404ZM5.77248 6.86502C5.5 7.3998 5.5 8.09987 5.5 9.5V20.0954C5.5 20.4694 5.5 20.6564 5.55177 20.7612C5.6577 20.9755 5.90052 21.0848 6.13121 21.0221C6.24394 20.9914 6.38396 20.8675 6.66399 20.6196L8.60424 18.902C8.77224 18.7533 8.85623 18.6789 8.95161 18.6259C9.03621 18.5789 9.12719 18.5444 9.22169 18.5235C9.32825 18.5 9.44043 18.5 9.66479 18.5H18.5C19.9001 18.5 20.6002 18.5 21.135 18.2275C21.6054 17.9878 21.9878 17.6054 22.2275 17.135C22.5 16.6002 22.5 15.9001 22.5 14.5V9.5C22.5 8.09987 22.5 7.3998 22.2275 6.86502C21.9878 6.39462 21.6054 6.01217 21.135 5.77248C20.6002 5.5 19.9001 5.5 18.5 5.5H9.5C8.09987 5.5 7.3998 5.5 6.86502 5.77248C6.39462 6.01217 6.01217 6.39462 5.77248 6.86502ZM9 10.25C9 9.83579 9.33579 9.5 9.75 9.5H15.25C15.6642 9.5 16 9.83579 16 10.25C16 10.6642 15.6642 11 15.25 11H9.75C9.33579 11 9 10.6642 9 10.25ZM9 13.75C9 13.3358 9.33579 13 9.75 13H18.25C18.6642 13 19 13.3358 19 13.75C19 14.1642 18.6642 14.5 18.25 14.5H9.75C9.33579 14.5 9 14.1642 9 13.75Z" fill="black"/>
</g>
<defs>
<filter id="filter0_d_2368_51857" x="-2" y="0" width="32" height="32" filterUnits="userSpaceOnUse" color-interpolation-filters="sRGB">
<feFlood flood-opacity="0" result="BackgroundImageFix"/>
<feColorMatrix in="SourceAlpha" type="matrix" values="0 0 0 0 0 0 0 0 0 0 0 0 0 0 0 0 0 0 127 0" result="hardAlpha"/>
<feOffset dy="4"/>
<feGaussianBlur stdDeviation="2"/>
<feComposite in2="hardAlpha" operator="out"/>
<feColorMatrix type="matrix" values="0 0 0 0 0 0 0 0 0 0 0 0 0 0 0 0 0 0 0.25 0"/>
<feBlend mode="normal" in2="BackgroundImageFix" result="effect1_dropShadow_2368_51857"/>
<feBlend mode="normal" in="SourceGraphic" in2="effect1_dropShadow_2368_51857" result="shape"/>
</filter>
</defs>
</svg>
