<svg width="24" height="23" viewBox="0 0 24 23" fill="none" xmlns="http://www.w3.org/2000/svg">
<g filter="url(#filter0_d_1854_40008)">
<path fill-rule="evenodd" clip-rule="evenodd" d="M9.99113 1L9.89494 0.999939C9.3926 0.999445 8.97763 0.999036 8.59381 1.12542C8.25685 1.23637 7.94735 1.41777 7.6859 1.65757C7.3881 1.9307 7.1857 2.29296 6.94068 2.73149L6.89374 2.81545L4.96172 6.26545L4.91678 6.34559L4.91677 6.3456C4.68117 6.76539 4.48647 7.11229 4.40762 7.49305C4.33837 7.82747 4.33837 8.17253 4.40762 8.50695C4.48647 8.88771 4.68117 9.23462 4.91678 9.65441L4.96172 9.73455L6.89374 13.1846L6.94068 13.2685C7.1857 13.707 7.3881 14.0693 7.6859 14.3424C7.94735 14.5822 8.25685 14.7636 8.59381 14.8746C8.97763 15.001 9.3926 15.0006 9.89494 15.0001L9.99113 15H14.0088L14.105 15.0001C14.6074 15.0006 15.0223 15.001 15.4062 14.8746C15.7431 14.7636 16.0526 14.5822 16.3141 14.3424C16.6119 14.0693 16.8143 13.707 17.0593 13.2685L17.1062 13.1845L19.0382 9.73453L19.0832 9.65439C19.3188 9.23461 19.5135 8.8877 19.5923 8.50695C19.6616 8.17253 19.6616 7.82747 19.5923 7.49306C19.5135 7.1123 19.3188 6.7654 19.0832 6.34561L19.0382 6.26547L17.1062 2.81547L17.0593 2.73152L17.0593 2.73151C16.8143 2.29297 16.6119 1.93071 16.3141 1.65757C16.0526 1.41778 15.7431 1.23637 15.4062 1.12542C15.0223 0.999036 14.6074 0.999445 14.105 0.999939L14.0088 1H9.99113ZM9.06295 2.55017C9.18814 2.50894 9.3423 2.5 9.99113 2.5H14.0088C14.6577 2.5 14.8118 2.50894 14.937 2.55017C15.0718 2.59455 15.1956 2.66711 15.3002 2.76303C15.3973 2.85212 15.4805 2.98226 15.7975 3.54837L17.7295 6.99837C18.0329 7.54025 18.0977 7.67293 18.1235 7.79722C18.1512 7.93099 18.1512 8.06901 18.1235 8.20278C18.0977 8.32708 18.0329 8.45975 17.7295 9.00163L15.7975 12.4516C15.4805 13.0177 15.3973 13.1479 15.3002 13.237C15.1956 13.3329 15.0718 13.4055 14.937 13.4498C14.8118 13.4911 14.6577 13.5 14.0088 13.5H9.99113C9.3423 13.5 9.18814 13.4911 9.06295 13.4498C8.92816 13.4055 8.80436 13.3329 8.69978 13.237C8.60264 13.1479 8.51951 13.0177 8.20249 12.4516L6.27048 9.00164C5.96702 8.45976 5.9022 8.32708 5.87646 8.20278C5.84876 8.06901 5.84876 7.93099 5.87646 7.79722C5.9022 7.67292 5.96702 7.54025 6.27048 6.99836L8.20249 3.54836C8.51951 2.98226 8.60264 2.85212 8.69978 2.76303C8.80436 2.66711 8.92816 2.59455 9.06295 2.55017ZM9.35945 6.92645C9.71817 6.71935 10.1769 6.84225 10.384 7.20097L11.884 9.79905C12.0911 10.1578 11.9682 10.6165 11.6094 10.8236C11.2507 11.0307 10.792 10.9078 10.5849 10.549L9.08493 7.95097C8.87782 7.59225 9.00073 7.13356 9.35945 6.92645ZM12.3905 5.17645C12.7493 4.96935 13.208 5.09225 13.4151 5.45097L14.9151 8.04905C15.1222 8.40777 14.9993 8.86646 14.6405 9.07357C14.2818 9.28067 13.8231 9.15777 13.616 8.79905L12.116 6.20097C11.9089 5.84225 12.0318 5.38356 12.3905 5.17645Z" fill="black"/>
</g>
<defs>
<filter id="filter0_d_1854_40008" x="0" y="0" width="24" height="24" filterUnits="userSpaceOnUse" color-interpolation-filters="sRGB">
<feFlood flood-opacity="0" result="BackgroundImageFix"/>
<feColorMatrix in="SourceAlpha" type="matrix" values="0 0 0 0 0 0 0 0 0 0 0 0 0 0 0 0 0 0 127 0" result="hardAlpha"/>
<feOffset dy="4"/>
<feGaussianBlur stdDeviation="2"/>
<feComposite in2="hardAlpha" operator="out"/>
<feColorMatrix type="matrix" values="0 0 0 0 0 0 0 0 0 0 0 0 0 0 0 0 0 0 0.25 0"/>
<feBlend mode="normal" in2="BackgroundImageFix" result="effect1_dropShadow_1854_40008"/>
<feBlend mode="normal" in="SourceGraphic" in2="effect1_dropShadow_1854_40008" result="shape"/>
</filter>
</defs>
</svg>
