<svg width="28" height="30" viewBox="0 0 28 30" fill="none" xmlns="http://www.w3.org/2000/svg">
<g filter="url(#filter0_d_34_12912)">
<path fill-rule="evenodd" clip-rule="evenodd" d="M16.8942 17.6076L20.5978 13.906L20.5978 13.906L20.5978 13.906C21.117 13.3871 21.3765 13.1277 21.5622 12.8248C21.7267 12.5564 21.848 12.2637 21.9216 11.9575C22.0045 11.6121 22.0045 11.2451 22.0045 10.511V7.20021C22.0045 6.08011 22.0045 5.52006 21.7865 5.09223C21.5948 4.71591 21.2888 4.40995 20.9125 4.2182C20.4847 4.00021 19.9246 4.00021 18.8045 4.00021H15.4883C14.7546 4.00021 14.3877 4.00021 14.0424 4.0831C13.7363 4.15659 13.4437 4.2778 13.1753 4.44228L12.3915 3.16331C12.7942 2.91659 13.2331 2.73478 13.6923 2.62454C14.2149 2.49907 14.753 2.49957 15.3634 2.50014L15.4883 2.50021H18.8045L18.857 2.50021C19.3719 2.50017 19.8449 2.50014 20.2403 2.53244C20.6665 2.56727 21.1329 2.647 21.5935 2.88169C22.2521 3.21725 22.7875 3.75268 23.123 4.41125C23.3577 4.87186 23.4375 5.3382 23.4723 5.76447C23.5046 6.15983 23.5046 6.63279 23.5045 7.14775L23.5045 7.20021V10.511L23.5046 10.636C23.5052 11.2466 23.5057 11.7849 23.3801 12.3077C23.2698 12.767 23.0879 13.2061 22.841 13.6088C22.56 14.0672 22.1789 14.4474 21.7467 14.8786L21.6585 14.9666L21.6584 14.9667L21.6582 14.9669L21.6581 14.967L17.9549 18.6683L17.9546 18.6686L17.9138 18.7094C17.3546 19.2683 16.8723 19.7504 16.4425 20.1151C15.9889 20.5 15.4962 20.8412 14.8905 21.0379C13.9868 21.3313 13.0134 21.3312 12.1098 21.0375C11.5041 20.8407 11.0115 20.4993 10.558 20.1143C10.1283 19.7496 9.64607 19.2673 9.08709 18.7083L9.04624 18.6674L7.33363 16.9548L7.29275 16.9139C6.73359 16.3548 6.25122 15.8725 5.88638 15.4427C5.50131 14.9891 5.15988 14.4964 4.96304 13.8906C4.66938 12.9868 4.66938 12.0132 4.96306 11.1094C5.15991 10.5036 5.50135 10.0109 5.88642 9.55727C6.25126 9.12752 6.73363 8.6452 7.29279 8.0861L7.2928 8.08608L7.33369 8.0452L11.0336 4.34538L11.1219 4.25697C11.5531 3.82501 11.9332 3.44415 12.3915 3.16331L13.1753 4.44228C12.8725 4.6278 12.6131 4.88722 12.0943 5.40605L8.39433 9.10587C7.20625 10.2939 6.61221 10.8879 6.38964 11.5729C6.19386 12.1755 6.19385 12.8245 6.38962 13.4271C6.61219 14.112 7.20622 14.7061 8.39429 15.8941L10.1069 17.6068C11.2947 18.7945 11.8886 19.3884 12.5734 19.611C13.1758 19.8068 13.8247 19.8069 14.4272 19.6112C15.1121 19.3888 15.7062 18.7951 16.8942 17.6076ZM19.2545 5.50021C18.5642 5.50021 18.0045 6.05986 18.0045 6.75021C18.0045 7.44057 18.5642 8.00021 19.2545 8.00021C19.9449 8.00021 20.5045 7.44057 20.5045 6.75021C20.5045 6.05986 19.9449 5.50021 19.2545 5.50021Z" fill="black"/>
</g>
<defs>
<filter id="filter0_d_34_12912" x="-2" y="0" width="32" height="32" filterUnits="userSpaceOnUse" color-interpolation-filters="sRGB">
<feFlood flood-opacity="0" result="BackgroundImageFix"/>
<feColorMatrix in="SourceAlpha" type="matrix" values="0 0 0 0 0 0 0 0 0 0 0 0 0 0 0 0 0 0 127 0" result="hardAlpha"/>
<feOffset dy="4"/>
<feGaussianBlur stdDeviation="2"/>
<feComposite in2="hardAlpha" operator="out"/>
<feColorMatrix type="matrix" values="0 0 0 0 0 0 0 0 0 0 0 0 0 0 0 0 0 0 0.25 0"/>
<feBlend mode="normal" in2="BackgroundImageFix" result="effect1_dropShadow_34_12912"/>
<feBlend mode="normal" in="SourceGraphic" in2="effect1_dropShadow_34_12912" result="shape"/>
</filter>
</defs>
</svg>
