<svg width="28" height="30" viewBox="0 0 28 30" fill="none" xmlns="http://www.w3.org/2000/svg">
<g filter="url(#filter0_d_36_12492)">
<path fill-rule="evenodd" clip-rule="evenodd" d="M19.9793 17.315C21.2364 15.9019 22 14.0401 22 12C22 7.58172 18.4183 4 14 4C9.58172 4 6 7.58172 6 12C6 14.0401 6.76365 15.9019 8.02068 17.315C9.73026 16.1687 11.787 15.5 14 15.5C16.213 15.5 18.2697 16.1687 19.9793 17.315ZM18.8433 18.3678C17.4346 17.5004 15.7757 17 14 17C12.2243 17 10.5654 17.5004 9.15668 18.3678C10.5011 19.3919 12.1795 20 14 20C15.8205 20 17.4989 19.3919 18.8433 18.3678ZM14 21.5C19.2467 21.5 23.5 17.2467 23.5 12C23.5 6.75329 19.2467 2.5 14 2.5C8.75329 2.5 4.5 6.75329 4.5 12C4.5 17.2467 8.75329 21.5 14 21.5ZM14 12.5C15.1046 12.5 16 11.6046 16 10.5C16 9.39543 15.1046 8.5 14 8.5C12.8954 8.5 12 9.39543 12 10.5C12 11.6046 12.8954 12.5 14 12.5ZM14 14C15.933 14 17.5 12.433 17.5 10.5C17.5 8.567 15.933 7 14 7C12.067 7 10.5 8.567 10.5 10.5C10.5 12.433 12.067 14 14 14Z" fill="black"/>
</g>
<defs>
<filter id="filter0_d_36_12492" x="-2" y="0" width="32" height="32" filterUnits="userSpaceOnUse" color-interpolation-filters="sRGB">
<feFlood flood-opacity="0" result="BackgroundImageFix"/>
<feColorMatrix in="SourceAlpha" type="matrix" values="0 0 0 0 0 0 0 0 0 0 0 0 0 0 0 0 0 0 127 0" result="hardAlpha"/>
<feOffset dy="4"/>
<feGaussianBlur stdDeviation="2"/>
<feComposite in2="hardAlpha" operator="out"/>
<feColorMatrix type="matrix" values="0 0 0 0 0 0 0 0 0 0 0 0 0 0 0 0 0 0 0.25 0"/>
<feBlend mode="normal" in2="BackgroundImageFix" result="effect1_dropShadow_36_12492"/>
<feBlend mode="normal" in="SourceGraphic" in2="effect1_dropShadow_36_12492" result="shape"/>
</filter>
</defs>
</svg>
