<svg width="26" height="29" viewBox="0 0 26 29" fill="none" xmlns="http://www.w3.org/2000/svg">
<g filter="url(#filter0_d_44_12835)">
<path fill-rule="evenodd" clip-rule="evenodd" d="M17.3863 4.63961C17.1352 4.55804 16.8648 4.55804 16.6137 4.63961C16.5171 4.67102 16.3904 4.73848 16.1708 4.92491C15.9445 5.11704 15.6724 5.38831 15.2676 5.79307L14.0606 7.00002L18 10.9394L19.2069 9.73241C19.6117 9.32765 19.883 9.05555 20.0751 8.82924C20.2615 8.60963 20.329 8.48294 20.3604 8.38627C20.442 8.13522 20.442 7.86479 20.3604 7.61373C20.329 7.51707 20.2615 7.39038 20.0751 7.17076C19.883 6.94445 19.6117 6.67236 19.2069 6.26759L18.7324 5.79307C18.3276 5.38831 18.0556 5.11704 17.8292 4.92491C17.6096 4.73848 17.4829 4.67102 17.3863 4.63961ZM12.4696 6.46967L12.474 6.46532L14.2069 4.73241L14.2285 4.71088C14.6062 4.33318 14.9214 4.01791 15.2 3.7814C15.4906 3.53473 15.7902 3.32999 16.1502 3.21302C16.7025 3.03357 17.2975 3.03357 17.8498 3.21302C18.2098 3.32999 18.5094 3.53473 18.8 3.7814C19.0786 4.01791 19.3938 4.33317 19.7715 4.71087L19.7715 4.71088L19.7931 4.73241L20.2676 5.20693L20.2891 5.22844L20.2891 5.22846L20.2892 5.22856C20.6669 5.60621 20.9821 5.92143 21.2186 6.2C21.4653 6.49056 21.67 6.79021 21.787 7.15021C21.9664 7.70253 21.9664 8.29748 21.787 8.8498C21.67 9.20979 21.4653 9.50944 21.2186 9.80001C20.9821 10.0786 20.6668 10.3938 20.2892 10.7715L20.2891 10.7716L20.2676 10.7931L18.5303 12.5303L11.6862 19.3744L11.6258 19.4349C11.1652 19.8957 10.8464 20.2147 10.4667 20.4474C10.1312 20.653 9.76542 20.8045 9.38278 20.8964C8.9498 21.0003 8.4988 21.0002 7.84724 21L7.76178 21H7.15H7.12108H7.12098C6.72567 21 6.38463 21 6.10373 20.9771C5.80722 20.9529 5.51231 20.8994 5.22852 20.7548C4.80516 20.5391 4.46095 20.1948 4.24524 19.7715C4.10064 19.4877 4.04715 19.1928 4.02293 18.8963C3.99998 18.6153 3.99999 18.2743 4 17.8789L4 17.85V17.2382L3.99999 17.1528C3.9998 16.5012 3.99967 16.0502 4.10361 15.6172C4.19548 15.2346 4.34699 14.8688 4.5526 14.5333C4.78526 14.1536 5.10426 13.8348 5.56511 13.3742L5.56511 13.3742L5.62556 13.3138L12.4653 6.47405L12.4696 6.46967ZM10.6256 18.3138L16.9393 12L13 8.06068L6.68622 14.3744C6.14212 14.9185 5.95992 15.1076 5.83156 15.317C5.7082 15.5183 5.61729 15.7378 5.56217 15.9674C5.50482 16.2063 5.5 16.4688 5.5 17.2382V17.85C5.5 18.2824 5.50058 18.5616 5.51795 18.7741C5.53459 18.9779 5.56285 19.0534 5.58175 19.0905C5.65365 19.2316 5.76839 19.3464 5.90951 19.4183C5.94659 19.4372 6.02213 19.4654 6.22588 19.4821C6.43838 19.4994 6.71759 19.5 7.15 19.5H7.76178C8.53125 19.5 8.79374 19.4952 9.03261 19.4378C9.26219 19.3827 9.48167 19.2918 9.68298 19.1684C9.89244 19.0401 10.0815 18.8579 10.6256 18.3138ZM14.75 19.5C14.3358 19.5 14 19.8358 14 20.25C14 20.6642 14.3358 21 14.75 21H21.25C21.6642 21 22 20.6642 22 20.25C22 19.8358 21.6642 19.5 21.25 19.5H14.75Z" fill="black"/>
</g>
<defs>
<filter id="filter0_d_44_12835" x="-3" y="0" width="32" height="32" filterUnits="userSpaceOnUse" color-interpolation-filters="sRGB">
<feFlood flood-opacity="0" result="BackgroundImageFix"/>
<feColorMatrix in="SourceAlpha" type="matrix" values="0 0 0 0 0 0 0 0 0 0 0 0 0 0 0 0 0 0 127 0" result="hardAlpha"/>
<feOffset dy="4"/>
<feGaussianBlur stdDeviation="2"/>
<feComposite in2="hardAlpha" operator="out"/>
<feColorMatrix type="matrix" values="0 0 0 0 0 0 0 0 0 0 0 0 0 0 0 0 0 0 0.25 0"/>
<feBlend mode="normal" in2="BackgroundImageFix" result="effect1_dropShadow_44_12835"/>
<feBlend mode="normal" in="SourceGraphic" in2="effect1_dropShadow_44_12835" result="shape"/>
</filter>
</defs>
</svg>
