<svg width="24" height="28" viewBox="0 0 24 28" fill="none" xmlns="http://www.w3.org/2000/svg">
<g filter="url(#filter0_d_40_12461)">
<path fill-rule="evenodd" clip-rule="evenodd" d="M16.5 11C16.5 14.0376 14.0376 16.5 11 16.5C7.96243 16.5 5.5 14.0376 5.5 11C5.5 7.96243 7.96243 5.5 11 5.5C14.0376 5.5 16.5 7.96243 16.5 11ZM15.3911 16.4518C14.1902 17.4202 12.6628 18 11 18C7.13401 18 4 14.866 4 11C4 7.13401 7.13401 4 11 4C14.866 4 18 7.13401 18 11C18 12.6628 17.4202 14.1902 16.4518 15.3911L19.2803 18.2197C19.5732 18.5126 19.5732 18.9874 19.2803 19.2803C18.9874 19.5732 18.5126 19.5732 18.2197 19.2803L15.3911 16.4518Z" fill="black"/>
</g>
<defs>
<filter id="filter0_d_40_12461" x="-4" y="0" width="32" height="32" filterUnits="userSpaceOnUse" color-interpolation-filters="sRGB">
<feFlood flood-opacity="0" result="BackgroundImageFix"/>
<feColorMatrix in="SourceAlpha" type="matrix" values="0 0 0 0 0 0 0 0 0 0 0 0 0 0 0 0 0 0 127 0" result="hardAlpha"/>
<feOffset dy="4"/>
<feGaussianBlur stdDeviation="2"/>
<feComposite in2="hardAlpha" operator="out"/>
<feColorMatrix type="matrix" values="0 0 0 0 0 0 0 0 0 0 0 0 0 0 0 0 0 0 0.25 0"/>
<feBlend mode="normal" in2="BackgroundImageFix" result="effect1_dropShadow_40_12461"/>
<feBlend mode="normal" in="SourceGraphic" in2="effect1_dropShadow_40_12461" result="shape"/>
</filter>
</defs>
</svg>
