<svg width="30" height="31" viewBox="0 0 30 31" fill="none" xmlns="http://www.w3.org/2000/svg">
<g filter="url(#filter0_d_45_14199)">
<path fill-rule="evenodd" clip-rule="evenodd" d="M15 1C15.4142 1 15.75 1.33579 15.75 1.75V3.75C15.75 4.16421 15.4142 4.5 15 4.5C14.5858 4.5 14.25 4.16421 14.25 3.75V1.75C14.25 1.33579 14.5858 1 15 1ZM15 16.5C17.4853 16.5 19.5 14.4853 19.5 12C19.5 9.51472 17.4853 7.5 15 7.5C12.5147 7.5 10.5 9.51472 10.5 12C10.5 14.4853 12.5147 16.5 15 16.5ZM15 18C18.3137 18 21 15.3137 21 12C21 8.68629 18.3137 6 15 6C11.6863 6 9.00001 8.68629 9.00001 12C9.00001 15.3137 11.6863 18 15 18ZM22.7784 5.28249C23.0713 4.98959 23.0713 4.51472 22.7784 4.22183C22.4855 3.92893 22.0106 3.92893 21.7177 4.22183L20.3035 5.63604C20.0106 5.92893 20.0106 6.40381 20.3035 6.6967C20.5964 6.98959 21.0713 6.98959 21.3641 6.6967L22.7784 5.28249ZM7.22201 4.22183C7.5149 3.92893 7.98978 3.92893 8.28267 4.22183L9.69688 5.63604C9.98978 5.92893 9.98978 6.40381 9.69688 6.6967C9.40399 6.98959 8.92912 6.98959 8.63622 6.6967L7.22201 5.28249C6.92912 4.98959 6.92912 4.51472 7.22201 4.22183ZM25.2502 12.75C25.6644 12.75 26.0002 12.4142 26.0002 12C26.0002 11.5858 25.6644 11.25 25.2502 11.25H23.2502C22.836 11.25 22.5002 11.5858 22.5002 12C22.5002 12.4142 22.836 12.75 23.2502 12.75H25.2502ZM15 19.5C15.4142 19.5 15.75 19.8358 15.75 20.25V22.25C15.75 22.6642 15.4142 23 15 23C14.5858 23 14.25 22.6642 14.25 22.25V20.25C14.25 19.8358 14.5858 19.5 15 19.5ZM9.69688 18.364C9.98978 18.0711 9.98978 17.5962 9.69688 17.3033C9.40399 17.0104 8.92912 17.0104 8.63622 17.3033L7.22201 18.7175C6.92912 19.0104 6.92912 19.4853 7.22201 19.7782C7.5149 20.0711 7.98978 20.0711 8.28267 19.7782L9.69688 18.364ZM20.3035 17.3033C20.5964 17.0104 21.0713 17.0104 21.3641 17.3033L22.7784 18.7175C23.0713 19.0104 23.0713 19.4853 22.7784 19.7782C22.4855 20.0711 22.0106 20.0711 21.7177 19.7782L20.3035 18.364C20.0106 18.0711 20.0106 17.5962 20.3035 17.3033ZM6.75018 12.75C7.1644 12.75 7.50018 12.4142 7.50018 12C7.50018 11.5858 7.1644 11.25 6.75018 11.25H4.75018C4.33597 11.25 4.00018 11.5858 4.00018 12C4.00018 12.4142 4.33597 12.75 4.75018 12.75H6.75018Z" fill="black"/>
</g>
<defs>
<filter id="filter0_d_45_14199" x="-1" y="0" width="32" height="32" filterUnits="userSpaceOnUse" color-interpolation-filters="sRGB">
<feFlood flood-opacity="0" result="BackgroundImageFix"/>
<feColorMatrix in="SourceAlpha" type="matrix" values="0 0 0 0 0 0 0 0 0 0 0 0 0 0 0 0 0 0 127 0" result="hardAlpha"/>
<feOffset dy="4"/>
<feGaussianBlur stdDeviation="2"/>
<feComposite in2="hardAlpha" operator="out"/>
<feColorMatrix type="matrix" values="0 0 0 0 0 0 0 0 0 0 0 0 0 0 0 0 0 0 0.25 0"/>
<feBlend mode="normal" in2="BackgroundImageFix" result="effect1_dropShadow_45_14199"/>
<feBlend mode="normal" in="SourceGraphic" in2="effect1_dropShadow_45_14199" result="shape"/>
</filter>
</defs>
</svg>
