<svg width="22" height="23" viewBox="0 0 22 23" fill="none" xmlns="http://www.w3.org/2000/svg">
<g filter="url(#filter0_d_130_21262)">
<path fill-rule="evenodd" clip-rule="evenodd" d="M14.6935 7.09677C14.6935 9.6355 12.6355 11.6935 10.0968 11.6935C7.55805 11.6935 5.5 9.6355 5.5 7.09677C5.5 4.55805 7.55805 2.5 10.0968 2.5C12.6355 2.5 14.6935 4.55805 14.6935 7.09677ZM13.845 11.9056C12.811 12.7127 11.51 13.1935 10.0968 13.1935C6.72962 13.1935 4 10.4639 4 7.09677C4 3.72962 6.72962 1 10.0968 1C13.4639 1 16.1935 3.72962 16.1935 7.09677C16.1935 8.51005 15.7127 9.81101 14.9056 10.845L17.3771 13.3164C17.67 13.6093 17.67 14.0842 17.3771 14.3771C17.0842 14.67 16.6093 14.67 16.3164 14.3771L13.845 11.9056Z" fill="black"/>
</g>
<defs>
<filter id="filter0_d_130_21262" x="-1" y="0" width="24" height="24" filterUnits="userSpaceOnUse" color-interpolation-filters="sRGB">
<feFlood flood-opacity="0" result="BackgroundImageFix"/>
<feColorMatrix in="SourceAlpha" type="matrix" values="0 0 0 0 0 0 0 0 0 0 0 0 0 0 0 0 0 0 127 0" result="hardAlpha"/>
<feOffset dy="4"/>
<feGaussianBlur stdDeviation="2"/>
<feComposite in2="hardAlpha" operator="out"/>
<feColorMatrix type="matrix" values="0 0 0 0 0 0 0 0 0 0 0 0 0 0 0 0 0 0 0.25 0"/>
<feBlend mode="normal" in2="BackgroundImageFix" result="effect1_dropShadow_130_21262"/>
<feBlend mode="normal" in="SourceGraphic" in2="effect1_dropShadow_130_21262" result="shape"/>
</filter>
</defs>
</svg>
