<svg width="26" height="29" viewBox="0 0 26 29" fill="none" xmlns="http://www.w3.org/2000/svg">
<g filter="url(#filter0_d_45_13084)">
<path fill-rule="evenodd" clip-rule="evenodd" d="M7.75 6C7.75 5.17157 8.42157 4.5 9.25 4.5C10.0784 4.5 10.75 5.17157 10.75 6C10.75 6.82843 10.0784 7.5 9.25 7.5C8.42157 7.5 7.75 6.82843 7.75 6ZM6.34451 5.25H4.75C4.33579 5.25 4 5.58579 4 6C4 6.41421 4.33579 6.75 4.75 6.75H6.34451C6.67755 8.04392 7.85212 9 9.25 9C10.6479 9 11.8225 8.04392 12.1555 6.75H21.25C21.6642 6.75 22 6.41421 22 6C22 5.58579 21.6642 5.25 21.25 5.25H12.1555C11.8225 3.95608 10.6479 3 9.25 3C7.85212 3 6.67755 3.95608 6.34451 5.25ZM4.75 17.25C4.33579 17.25 4 17.5858 4 18C4 18.4142 4.33579 18.75 4.75 18.75H6.34451C6.67755 20.0439 7.85212 21 9.25 21C10.6479 21 11.8225 20.0439 12.1555 18.75H21.25C21.6642 18.75 22 18.4142 22 18C22 17.5858 21.6642 17.25 21.25 17.25H12.1555C11.8225 15.9561 10.6479 15 9.25 15C7.85212 15 6.67755 15.9561 6.34451 17.25H4.75ZM9.25 16.5C10.0784 16.5 10.75 17.1716 10.75 18C10.75 18.8284 10.0784 19.5 9.25 19.5C8.42157 19.5 7.75 18.8284 7.75 18C7.75 17.1716 8.42157 16.5 9.25 16.5ZM4 12C4 11.5858 4.33579 11.25 4.75 11.25H13.8445C14.1775 9.95608 15.3521 9 16.75 9C18.1479 9 19.3225 9.95608 19.6555 11.25H21.25C21.6642 11.25 22 11.5858 22 12C22 12.4142 21.6642 12.75 21.25 12.75H19.6555C19.3225 14.0439 18.1479 15 16.75 15C15.3521 15 14.1775 14.0439 13.8445 12.75H4.75C4.33579 12.75 4 12.4142 4 12ZM18.25 12C18.25 11.1716 17.5784 10.5 16.75 10.5C15.9216 10.5 15.25 11.1716 15.25 12C15.25 12.8284 15.9216 13.5 16.75 13.5C17.5784 13.5 18.25 12.8284 18.25 12Z" fill="black"/>
</g>
<defs>
<filter id="filter0_d_45_13084" x="-3" y="0" width="32" height="32" filterUnits="userSpaceOnUse" color-interpolation-filters="sRGB">
<feFlood flood-opacity="0" result="BackgroundImageFix"/>
<feColorMatrix in="SourceAlpha" type="matrix" values="0 0 0 0 0 0 0 0 0 0 0 0 0 0 0 0 0 0 127 0" result="hardAlpha"/>
<feOffset dy="4"/>
<feGaussianBlur stdDeviation="2"/>
<feComposite in2="hardAlpha" operator="out"/>
<feColorMatrix type="matrix" values="0 0 0 0 0 0 0 0 0 0 0 0 0 0 0 0 0 0 0.25 0"/>
<feBlend mode="normal" in2="BackgroundImageFix" result="effect1_dropShadow_45_13084"/>
<feBlend mode="normal" in="SourceGraphic" in2="effect1_dropShadow_45_13084" result="shape"/>
</filter>
</defs>
</svg>
