<svg width="22" height="23" viewBox="0 0 22 23" fill="none" xmlns="http://www.w3.org/2000/svg">
<g filter="url(#filter0_d_1517_46455)">
<path fill-rule="evenodd" clip-rule="evenodd" d="M16.5 8C16.5 11.0376 14.0376 13.5 11 13.5C7.96243 13.5 5.5 11.0376 5.5 8C5.5 4.96243 7.96243 2.5 11 2.5C14.0376 2.5 16.5 4.96243 16.5 8ZM18 8C18 11.866 14.866 15 11 15C7.13401 15 4 11.866 4 8C4 4.13401 7.13401 1 11 1C14.866 1 18 4.13401 18 8ZM11.5 5.75C11.5 5.33579 11.1642 5 10.75 5C10.3358 5 10 5.33579 10 5.75V8C10 8.19891 10.079 8.38968 10.2197 8.53033L11.9697 10.2803C12.2626 10.5732 12.7374 10.5732 13.0303 10.2803C13.3232 9.98744 13.3232 9.51256 13.0303 9.21967L11.5 7.68934V5.75Z" fill="black"/>
</g>
<defs>
<filter id="filter0_d_1517_46455" x="-1" y="0" width="24" height="24" filterUnits="userSpaceOnUse" color-interpolation-filters="sRGB">
<feFlood flood-opacity="0" result="BackgroundImageFix"/>
<feColorMatrix in="SourceAlpha" type="matrix" values="0 0 0 0 0 0 0 0 0 0 0 0 0 0 0 0 0 0 127 0" result="hardAlpha"/>
<feOffset dy="4"/>
<feGaussianBlur stdDeviation="2"/>
<feComposite in2="hardAlpha" operator="out"/>
<feColorMatrix type="matrix" values="0 0 0 0 0 0 0 0 0 0 0 0 0 0 0 0 0 0 0.25 0"/>
<feBlend mode="normal" in2="BackgroundImageFix" result="effect1_dropShadow_1517_46455"/>
<feBlend mode="normal" in="SourceGraphic" in2="effect1_dropShadow_1517_46455" result="shape"/>
</filter>
</defs>
</svg>
