<svg width="28" height="30" viewBox="0 0 28 30" fill="none" xmlns="http://www.w3.org/2000/svg">
<g filter="url(#filter0_d_86_18708)">
<path fill-rule="evenodd" clip-rule="evenodd" d="M14 2.5C12.6193 2.5 11.5 3.61929 11.5 5H16.5C16.5 3.61929 15.3807 2.5 14 2.5ZM18 5H23.25C23.6642 5 24 5.33579 24 5.75C24 6.16421 23.6642 6.5 23.25 6.5H22V15.6C22 17.8402 22 18.9603 21.564 19.816C21.1805 20.5686 20.5686 21.1805 19.816 21.564C18.9603 22 17.8402 22 15.6 22H12.4C10.1598 22 9.03969 22 8.18404 21.564C7.43139 21.1805 6.81947 20.5686 6.43597 19.816C6 18.9603 6 17.8402 6 15.6V6.5H4.75C4.33579 6.5 4 6.16421 4 5.75C4 5.33579 4.33579 5 4.75 5H10C10 2.79086 11.7909 1 14 1C16.2091 1 18 2.79086 18 5ZM7.5 16.5V6.5H20.5V16.5C20.5 17.9001 20.5 18.6002 20.2275 19.135C19.9878 19.6054 19.6054 19.9878 19.135 20.2275C18.6002 20.5 17.9001 20.5 16.5 20.5H11.5C10.0999 20.5 9.3998 20.5 8.86502 20.2275C8.39462 19.9878 8.01217 19.6054 7.77248 19.135C7.5 18.6002 7.5 17.9001 7.5 16.5ZM11.75 10C12.1642 10 12.5 10.3358 12.5 10.75V16.25C12.5 16.6642 12.1642 17 11.75 17C11.3358 17 11 16.6642 11 16.25V10.75C11 10.3358 11.3358 10 11.75 10ZM17 10.75C17 10.3358 16.6642 10 16.25 10C15.8358 10 15.5 10.3358 15.5 10.75V16.25C15.5 16.6642 15.8358 17 16.25 17C16.6642 17 17 16.6642 17 16.25V10.75Z" fill="black"/>
</g>
<defs>
<filter id="filter0_d_86_18708" x="-2" y="0" width="32" height="32" filterUnits="userSpaceOnUse" color-interpolation-filters="sRGB">
<feFlood flood-opacity="0" result="BackgroundImageFix"/>
<feColorMatrix in="SourceAlpha" type="matrix" values="0 0 0 0 0 0 0 0 0 0 0 0 0 0 0 0 0 0 127 0" result="hardAlpha"/>
<feOffset dy="4"/>
<feGaussianBlur stdDeviation="2"/>
<feComposite in2="hardAlpha" operator="out"/>
<feColorMatrix type="matrix" values="0 0 0 0 0 0 0 0 0 0 0 0 0 0 0 0 0 0 0.25 0"/>
<feBlend mode="normal" in2="BackgroundImageFix" result="effect1_dropShadow_86_18708"/>
<feBlend mode="normal" in="SourceGraphic" in2="effect1_dropShadow_86_18708" result="shape"/>
</filter>
</defs>
</svg>
