<svg width="24" height="24" viewBox="0 0 24 24" fill="none" xmlns="http://www.w3.org/2000/svg">
<g clip-path="url(#clip0_74_16879)" filter="url(#filter0_d_74_16879)">
<path fill-rule="evenodd" clip-rule="evenodd" d="M12 2C11.1184 2 10.389 2.65193 10.2677 3.5H13.7323C13.611 2.65193 12.8816 2 12 2ZM12 0.5C10.2892 0.5 8.88713 1.82189 8.75947 3.5H6.75H5.25C4.83579 3.5 4.5 3.83579 4.5 4.25C4.5 4.66421 4.83579 5 5.25 5H6V10.75L6 10.7814C5.99999 11.4548 5.99998 12.0055 6.03655 12.4531C6.0744 12.9163 6.15514 13.3347 6.35423 13.7255C6.66582 14.337 7.163 14.8342 7.77453 15.1458C8.16527 15.3449 8.58367 15.4256 9.04693 15.4634C9.49448 15.5 10.0452 15.5 10.7185 15.5H10.7186H10.75H13.25H13.2814H13.2815C13.9548 15.5 14.5055 15.5 14.9531 15.4634C15.4163 15.4256 15.8347 15.3449 16.2255 15.1458C16.837 14.8342 17.3342 14.337 17.6458 13.7255C17.8449 13.3347 17.9256 12.9163 17.9634 12.4531C18 12.0055 18 11.4548 18 10.7815V10.7814V10.75V5H18.75C19.1642 5 19.5 4.66421 19.5 4.25C19.5 3.83579 19.1642 3.5 18.75 3.5H17.25H15.2405C15.1129 1.82189 13.7108 0.5 12 0.5ZM7.5 5V10.75C7.5 11.4624 7.50058 11.9517 7.53157 12.3309C7.56184 12.7014 7.61735 12.9004 7.69074 13.0445C7.85852 13.3738 8.12623 13.6415 8.45552 13.8093C8.59956 13.8827 8.79858 13.9382 9.16908 13.9684C9.54833 13.9994 10.0376 14 10.75 14H13.25C13.9624 14 14.4517 13.9994 14.8309 13.9684C15.2014 13.9382 15.4004 13.8827 15.5445 13.8093C15.8738 13.6415 16.1415 13.3738 16.3093 13.0445C16.3827 12.9004 16.4382 12.7014 16.4684 12.3309C16.4994 11.9517 16.5 11.4624 16.5 10.75V5H7.5ZM11 7.25C11 6.83579 10.6642 6.5 10.25 6.5C9.83579 6.5 9.5 6.83579 9.5 7.25V11.75C9.5 12.1642 9.83579 12.5 10.25 12.5C10.6642 12.5 11 12.1642 11 11.75V7.25ZM14.5 7.25C14.5 6.83579 14.1642 6.5 13.75 6.5C13.3358 6.5 13 6.83579 13 7.25V11.75C13 12.1642 13.3358 12.5 13.75 12.5C14.1642 12.5 14.5 12.1642 14.5 11.75V7.25Z" fill="black"/>
</g>
<defs>
<filter id="filter0_d_74_16879" x="0" y="0" width="24" height="24" filterUnits="userSpaceOnUse" color-interpolation-filters="sRGB">
<feFlood flood-opacity="0" result="BackgroundImageFix"/>
<feColorMatrix in="SourceAlpha" type="matrix" values="0 0 0 0 0 0 0 0 0 0 0 0 0 0 0 0 0 0 127 0" result="hardAlpha"/>
<feOffset dy="4"/>
<feGaussianBlur stdDeviation="2"/>
<feComposite in2="hardAlpha" operator="out"/>
<feColorMatrix type="matrix" values="0 0 0 0 0 0 0 0 0 0 0 0 0 0 0 0 0 0 0.25 0"/>
<feBlend mode="normal" in2="BackgroundImageFix" result="effect1_dropShadow_74_16879"/>
<feBlend mode="normal" in="SourceGraphic" in2="effect1_dropShadow_74_16879" result="shape"/>
</filter>
<clipPath id="clip0_74_16879">
<rect width="16" height="16" fill="white" transform="translate(4)"/>
</clipPath>
</defs>
</svg>
