<svg width="22" height="23" viewBox="0 0 22 23" fill="none" xmlns="http://www.w3.org/2000/svg">
<g filter="url(#filter0_d_109_23135)">
<path fill-rule="evenodd" clip-rule="evenodd" d="M6.27549 1.5H15.7248C17.4105 1.5 18.4699 3.31805 17.6389 4.78465L12.3051 14.197C11.7305 15.211 10.2696 15.211 9.69499 14.197L4.36143 4.78461C3.53038 3.31801 4.5898 1.5 6.27549 1.5ZM10.2504 12.15V3H6.92086C6.33858 3 6.04744 3 5.87734 3.12241C5.72893 3.22921 5.63236 3.39358 5.61133 3.57522C5.58721 3.78339 5.72896 4.0377 6.01244 4.54632L10.2504 12.15ZM11.7505 3V12.15L15.9884 4.54632C16.2719 4.0377 16.4137 3.78339 16.3896 3.57522C16.3685 3.39358 16.272 3.22921 16.1235 3.12241C15.9534 3 15.6623 3 15.08 3H11.7505Z" fill="black"/>
</g>
<defs>
<filter id="filter0_d_109_23135" x="-1" y="0" width="24" height="24" filterUnits="userSpaceOnUse" color-interpolation-filters="sRGB">
<feFlood flood-opacity="0" result="BackgroundImageFix"/>
<feColorMatrix in="SourceAlpha" type="matrix" values="0 0 0 0 0 0 0 0 0 0 0 0 0 0 0 0 0 0 127 0" result="hardAlpha"/>
<feOffset dy="4"/>
<feGaussianBlur stdDeviation="2"/>
<feComposite in2="hardAlpha" operator="out"/>
<feColorMatrix type="matrix" values="0 0 0 0 0 0 0 0 0 0 0 0 0 0 0 0 0 0 0.25 0"/>
<feBlend mode="normal" in2="BackgroundImageFix" result="effect1_dropShadow_109_23135"/>
<feBlend mode="normal" in="SourceGraphic" in2="effect1_dropShadow_109_23135" result="shape"/>
</filter>
</defs>
</svg>
