<svg width="24" height="21" viewBox="0 0 24 21" fill="none" xmlns="http://www.w3.org/2000/svg">
<g filter="url(#filter0_d_497_13956)">
<path fill-rule="evenodd" clip-rule="evenodd" d="M12 12.0004C11.1643 12.6281 10.1256 13 9 13C6.23858 13 4 10.7614 4 8C4 5.23858 6.23858 3 9 3C10.1256 3 11.1643 3.37195 12 3.99964C12.8357 3.37195 13.8744 3 15 3C17.7614 3 20 5.23858 20 8C20 10.7614 17.7614 13 15 13C13.8744 13 12.8357 12.6281 12 12.0004ZM10.9374 10.9153C10.3474 10.0946 10 9.08789 10 8C10 6.91211 10.3474 5.90537 10.9374 5.08468C10.3827 4.71528 9.71647 4.5 9 4.5C7.067 4.5 5.5 6.067 5.5 8C5.5 9.933 7.067 11.5 9 11.5C9.71647 11.5 10.3827 11.2847 10.9374 10.9153ZM18.5 8C18.5 9.933 16.933 11.5 15 11.5C13.067 11.5 11.5 9.933 11.5 8C11.5 6.067 13.067 4.5 15 4.5C16.933 4.5 18.5 6.067 18.5 8Z" fill="black"/>
</g>
<defs>
<filter id="filter0_d_497_13956" x="0" y="0" width="24" height="24" filterUnits="userSpaceOnUse" color-interpolation-filters="sRGB">
<feFlood flood-opacity="0" result="BackgroundImageFix"/>
<feColorMatrix in="SourceAlpha" type="matrix" values="0 0 0 0 0 0 0 0 0 0 0 0 0 0 0 0 0 0 127 0" result="hardAlpha"/>
<feOffset dy="4"/>
<feGaussianBlur stdDeviation="2"/>
<feComposite in2="hardAlpha" operator="out"/>
<feColorMatrix type="matrix" values="0 0 0 0 0 0 0 0 0 0 0 0 0 0 0 0 0 0 0.25 0"/>
<feBlend mode="normal" in2="BackgroundImageFix" result="effect1_dropShadow_497_13956"/>
<feBlend mode="normal" in="SourceGraphic" in2="effect1_dropShadow_497_13956" result="shape"/>
</filter>
</defs>
</svg>
