<svg width="24" height="24" viewBox="0 0 24 24" fill="none" xmlns="http://www.w3.org/2000/svg">
<g clip-path="url(#clip0_505_14148)" filter="url(#filter0_d_505_14148)">
<path fill-rule="evenodd" clip-rule="evenodd" d="M11.4573 0.626973C11.198 0.727586 10.9622 0.941545 10.4905 1.36946C10.2684 1.57105 10.1573 1.67184 10.0331 1.74695C9.86582 1.84808 9.68043 1.91555 9.48732 1.94558C9.34389 1.96788 9.194 1.96208 8.89422 1.95048C8.25786 1.92584 7.93967 1.91353 7.6764 2.0031C7.32188 2.12372 7.02529 2.37258 6.84495 2.70077C6.71102 2.94449 6.6679 3.25998 6.58165 3.89095C6.54102 4.18819 6.52071 4.33681 6.47384 4.47419C6.41074 4.65916 6.3121 4.83001 6.18346 4.97714C6.08792 5.08642 5.96937 5.17832 5.73227 5.36212C5.22895 5.7523 4.97729 5.94739 4.83319 6.18524C4.63914 6.50552 4.57191 6.8868 4.64471 7.25413C4.69878 7.52692 4.86854 7.79632 5.20805 8.33511C5.36799 8.58892 5.44796 8.71583 5.50036 8.85119C5.57091 9.03345 5.60517 9.22773 5.60121 9.42313C5.59826 9.56825 5.56652 9.71486 5.50304 10.0081C5.36828 10.6305 5.3009 10.9417 5.34339 11.2165C5.40061 11.5866 5.59419 11.9219 5.88608 12.1565C6.10284 12.3307 6.40605 12.428 7.01246 12.6225C7.29813 12.7141 7.44096 12.7599 7.56812 12.8299C7.73932 12.9242 7.89044 13.051 8.013 13.2032C8.10403 13.3163 8.17395 13.449 8.31378 13.7144C8.61063 14.2778 8.75907 14.5595 8.96828 14.7428C9.24999 14.9895 9.61381 15.1219 9.9882 15.114C10.2662 15.1081 10.561 14.9877 11.1506 14.7469C11.4283 14.6335 11.5672 14.5768 11.7096 14.5487C11.9013 14.5108 12.0986 14.5108 12.2903 14.5487C12.4327 14.5768 12.5716 14.6335 12.8493 14.7469C13.4389 14.9877 13.7337 15.1081 14.0117 15.114C14.3861 15.1219 14.7499 14.9895 15.0316 14.7428C15.2409 14.5595 15.3893 14.2778 15.6861 13.7144C15.826 13.449 15.8959 13.3163 15.9869 13.2032C16.1095 13.051 16.2606 12.9242 16.4318 12.8299C16.559 12.7599 16.7018 12.7141 16.9875 12.6225C17.5939 12.428 17.8971 12.3307 18.1138 12.1565C18.4057 11.9219 18.5993 11.5866 18.6565 11.2165C18.699 10.9417 18.6316 10.6305 18.4969 10.0081C18.4334 9.71488 18.4017 9.56825 18.3987 9.42313C18.3948 9.22773 18.429 9.03345 18.4996 8.85119C18.552 8.71583 18.6319 8.58892 18.7919 8.33511C19.1314 7.79632 19.3011 7.52692 19.3552 7.25413C19.428 6.8868 19.3608 6.50552 19.1667 6.18524C19.0226 5.94739 18.771 5.7523 18.2677 5.36212C18.0306 5.17832 17.912 5.08642 17.8165 4.97714C17.6878 4.83001 17.5892 4.65916 17.5261 4.47419C17.4792 4.33681 17.4589 4.18819 17.4183 3.89095C17.332 3.25998 17.2889 2.94449 17.155 2.70077C16.9746 2.37258 16.678 2.12371 16.3235 2.0031C16.0603 1.91353 15.7421 1.92584 15.1057 1.95048C14.8059 1.96208 14.656 1.96788 14.5126 1.94558C14.3195 1.91555 14.1341 1.84808 13.9669 1.74695C13.8427 1.67184 13.7316 1.57105 13.5094 1.36946C13.0377 0.941545 12.8019 0.727586 12.5427 0.626973C12.1935 0.491489 11.8064 0.491489 11.4573 0.626973Z" fill="black"/>
<path d="M9.25 8.25L11 10L14.5 6.5" stroke="white" stroke-width="1.5" stroke-linecap="round" stroke-linejoin="round"/>
</g>
<defs>
<filter id="filter0_d_505_14148" x="0" y="0" width="24" height="24" filterUnits="userSpaceOnUse" color-interpolation-filters="sRGB">
<feFlood flood-opacity="0" result="BackgroundImageFix"/>
<feColorMatrix in="SourceAlpha" type="matrix" values="0 0 0 0 0 0 0 0 0 0 0 0 0 0 0 0 0 0 127 0" result="hardAlpha"/>
<feOffset dy="4"/>
<feGaussianBlur stdDeviation="2"/>
<feComposite in2="hardAlpha" operator="out"/>
<feColorMatrix type="matrix" values="0 0 0 0 0 0 0 0 0 0 0 0 0 0 0 0 0 0 0.25 0"/>
<feBlend mode="normal" in2="BackgroundImageFix" result="effect1_dropShadow_505_14148"/>
<feBlend mode="normal" in="SourceGraphic" in2="effect1_dropShadow_505_14148" result="shape"/>
</filter>
<clipPath id="clip0_505_14148">
<rect width="16" height="16" fill="white" transform="translate(4)"/>
</clipPath>
</defs>
</svg>
