<svg width="28" height="28" viewBox="0 0 28 28" fill="none" xmlns="http://www.w3.org/2000/svg">
<g filter="url(#filter0_d_34_12913)">
<path fill-rule="evenodd" clip-rule="evenodd" d="M4.43597 6.18404C4.08775 6.86747 4.01766 7.71963 4.00355 9.17651C4.0012 9.20069 4 9.2252 4 9.25C4 9.27043 4.00082 9.29067 4.00242 9.31069C4 9.64184 4 10.0034 4 10.4V13.6C4 15.8402 4 16.9603 4.43597 17.816C4.81947 18.5686 5.43139 19.1805 6.18404 19.564C7.03969 20 8.15979 20 10.4 20H17.6C19.8402 20 20.9603 20 21.816 19.564C22.5686 19.1805 23.1805 18.5686 23.564 17.816C24 16.9603 24 15.8402 24 13.6V10.4C24 10.0034 24 9.64184 23.9976 9.31069C23.9992 9.29067 24 9.27043 24 9.25C24 9.2252 23.9988 9.20069 23.9964 9.17651C23.9823 7.71963 23.9123 6.86747 23.564 6.18404C23.1805 5.43139 22.5686 4.81947 21.816 4.43597C20.9603 4 19.8402 4 17.6 4H10.4C8.15979 4 7.03969 4 6.18404 4.43597C5.43139 4.81947 4.81947 5.43139 4.43597 6.18404ZM5.5 14.5V10H22.5V14.5C22.5 15.9001 22.5 16.6002 22.2275 17.135C21.9878 17.6054 21.6054 17.9878 21.135 18.2275C20.6002 18.5 19.9001 18.5 18.5 18.5H9.5C8.09987 18.5 7.3998 18.5 6.86502 18.2275C6.39462 17.9878 6.01217 17.6054 5.77248 17.135C5.5 16.6002 5.5 15.9001 5.5 14.5ZM5.50552 8.5H22.4945C22.4797 7.73039 22.4257 7.25399 22.2275 6.86502C21.9878 6.39462 21.6054 6.01217 21.135 5.77248C20.6002 5.5 19.9001 5.5 18.5 5.5H9.5C8.09987 5.5 7.3998 5.5 6.86502 5.77248C6.39462 6.01217 6.01217 6.39462 5.77248 6.86502C5.5743 7.25399 5.52026 7.73039 5.50552 8.5ZM16.75 14.5C16.3358 14.5 16 14.8358 16 15.25C16 15.6642 16.3358 16 16.75 16H19.25C19.6642 16 20 15.6642 20 15.25C20 14.8358 19.6642 14.5 19.25 14.5H16.75Z" fill="black"/>
</g>
<defs>
<filter id="filter0_d_34_12913" x="-2" y="0" width="32" height="32" filterUnits="userSpaceOnUse" color-interpolation-filters="sRGB">
<feFlood flood-opacity="0" result="BackgroundImageFix"/>
<feColorMatrix in="SourceAlpha" type="matrix" values="0 0 0 0 0 0 0 0 0 0 0 0 0 0 0 0 0 0 127 0" result="hardAlpha"/>
<feOffset dy="4"/>
<feGaussianBlur stdDeviation="2"/>
<feComposite in2="hardAlpha" operator="out"/>
<feColorMatrix type="matrix" values="0 0 0 0 0 0 0 0 0 0 0 0 0 0 0 0 0 0 0.25 0"/>
<feBlend mode="normal" in2="BackgroundImageFix" result="effect1_dropShadow_34_12913"/>
<feBlend mode="normal" in="SourceGraphic" in2="effect1_dropShadow_34_12913" result="shape"/>
</filter>
</defs>
</svg>
