<svg width="18" height="21" viewBox="0 0 18 21" fill="none" xmlns="http://www.w3.org/2000/svg">
<g filter="url(#filter0_d_483_12569)">
<path fill-rule="evenodd" clip-rule="evenodd" d="M4.21967 3.21967C4.51256 2.92678 4.98744 2.92678 5.28033 3.21967L9 6.93934L12.7197 3.21967C13.0126 2.92678 13.4874 2.92678 13.7803 3.21967C14.0732 3.51256 14.0732 3.98744 13.7803 4.28033L10.0607 8L13.7803 11.7197C14.0732 12.0126 14.0732 12.4874 13.7803 12.7803C13.4874 13.0732 13.0126 13.0732 12.7197 12.7803L9 9.06066L5.28033 12.7803C4.98744 13.0732 4.51256 13.0732 4.21967 12.7803C3.92678 12.4874 3.92678 12.0126 4.21967 11.7197L7.93934 8L4.21967 4.28033C3.92678 3.98744 3.92678 3.51256 4.21967 3.21967Z" fill="black"/>
</g>
<defs>
<filter id="filter0_d_483_12569" x="-3" y="0" width="24" height="24" filterUnits="userSpaceOnUse" color-interpolation-filters="sRGB">
<feFlood flood-opacity="0" result="BackgroundImageFix"/>
<feColorMatrix in="SourceAlpha" type="matrix" values="0 0 0 0 0 0 0 0 0 0 0 0 0 0 0 0 0 0 127 0" result="hardAlpha"/>
<feOffset dy="4"/>
<feGaussianBlur stdDeviation="2"/>
<feComposite in2="hardAlpha" operator="out"/>
<feColorMatrix type="matrix" values="0 0 0 0 0 0 0 0 0 0 0 0 0 0 0 0 0 0 0.25 0"/>
<feBlend mode="normal" in2="BackgroundImageFix" result="effect1_dropShadow_483_12569"/>
<feBlend mode="normal" in="SourceGraphic" in2="effect1_dropShadow_483_12569" result="shape"/>
</filter>
</defs>
</svg>
