<svg width="22" height="23" viewBox="0 0 22 23" fill="none" xmlns="http://www.w3.org/2000/svg">
<g filter="url(#filter0_d_1820_75026)">
<path fill-rule="evenodd" clip-rule="evenodd" d="M11 15C14.866 15 18 11.866 18 8C18 4.13401 14.866 1 11 1C7.13401 1 4 4.13401 4 8C4 11.866 7.13401 15 11 15ZM9.00256 4.94189C8.70967 4.649 8.23479 4.649 7.9419 4.94189C7.64901 5.23479 7.64901 5.70966 7.9419 6.00255L9.93935 8L7.9419 9.99745C7.64901 10.2903 7.64901 10.7652 7.9419 11.0581C8.23479 11.351 8.70967 11.351 9.00256 11.0581L11 9.06066L12.9975 11.0581C13.2903 11.351 13.7652 11.351 14.0581 11.0581C14.351 10.7652 14.351 10.2903 14.0581 9.99745L12.0607 8L14.0581 6.00255C14.351 5.70966 14.351 5.23479 14.0581 4.94189C13.7652 4.649 13.2903 4.649 12.9975 4.94189L11 6.93934L9.00256 4.94189Z" fill="black"/>
</g>
<defs>
<filter id="filter0_d_1820_75026" x="-1" y="0" width="24" height="24" filterUnits="userSpaceOnUse" color-interpolation-filters="sRGB">
<feFlood flood-opacity="0" result="BackgroundImageFix"/>
<feColorMatrix in="SourceAlpha" type="matrix" values="0 0 0 0 0 0 0 0 0 0 0 0 0 0 0 0 0 0 127 0" result="hardAlpha"/>
<feOffset dy="4"/>
<feGaussianBlur stdDeviation="2"/>
<feComposite in2="hardAlpha" operator="out"/>
<feColorMatrix type="matrix" values="0 0 0 0 0 0 0 0 0 0 0 0 0 0 0 0 0 0 0.25 0"/>
<feBlend mode="normal" in2="BackgroundImageFix" result="effect1_dropShadow_1820_75026"/>
<feBlend mode="normal" in="SourceGraphic" in2="effect1_dropShadow_1820_75026" result="shape"/>
</filter>
</defs>
</svg>
