<svg width="20" height="24" viewBox="0 0 20 24" fill="none" xmlns="http://www.w3.org/2000/svg">
<g filter="url(#filter0_d_427_10678)">
<path fill-rule="evenodd" clip-rule="evenodd" d="M4.21967 4.21967C4.51256 3.92678 4.98744 3.92678 5.28033 4.21967L9.9982 8.93753L14.7161 4.21967C15.009 3.92678 15.4838 3.92678 15.7767 4.21967C16.0696 4.51256 16.0696 4.98744 15.7767 5.28033L11.0589 9.99819L15.7767 14.7161C16.0696 15.009 16.0696 15.4838 15.7767 15.7767C15.4838 16.0696 15.009 16.0696 14.7161 15.7767L9.9982 11.0589L5.28033 15.7767C4.98744 16.0696 4.51256 16.0696 4.21967 15.7767C3.92678 15.4838 3.92678 15.009 4.21967 14.7161L8.93754 9.99819L4.21967 5.28033C3.92678 4.98744 3.92678 4.51256 4.21967 4.21967Z" fill="black"/>
</g>
<defs>
<filter id="filter0_d_427_10678" x="-4" y="0" width="28" height="28" filterUnits="userSpaceOnUse" color-interpolation-filters="sRGB">
<feFlood flood-opacity="0" result="BackgroundImageFix"/>
<feColorMatrix in="SourceAlpha" type="matrix" values="0 0 0 0 0 0 0 0 0 0 0 0 0 0 0 0 0 0 127 0" result="hardAlpha"/>
<feOffset dy="4"/>
<feGaussianBlur stdDeviation="2"/>
<feComposite in2="hardAlpha" operator="out"/>
<feColorMatrix type="matrix" values="0 0 0 0 0 0 0 0 0 0 0 0 0 0 0 0 0 0 0.25 0"/>
<feBlend mode="normal" in2="BackgroundImageFix" result="effect1_dropShadow_427_10678"/>
<feBlend mode="normal" in="SourceGraphic" in2="effect1_dropShadow_427_10678" result="shape"/>
</filter>
</defs>
</svg>
