<svg width="26" height="29" viewBox="0 0 26 29" fill="none" xmlns="http://www.w3.org/2000/svg">
<g filter="url(#filter0_d_45_13817)">
<path fill-rule="evenodd" clip-rule="evenodd" d="M13 21C17.9706 21 22 16.9706 22 12C22 7.02944 17.9706 3 13 3C8.02944 3 4 7.02944 4 12C4 16.9706 8.02944 21 13 21ZM10.2803 8.21967C9.98744 7.92678 9.51256 7.92678 9.21967 8.21967C8.92678 8.51256 8.92678 8.98744 9.21967 9.28033L11.9393 12L9.21967 14.7197C8.92678 15.0126 8.92678 15.4874 9.21967 15.7803C9.51256 16.0732 9.98744 16.0732 10.2803 15.7803L13 13.0607L15.7197 15.7803C16.0126 16.0732 16.4874 16.0732 16.7803 15.7803C17.0732 15.4874 17.0732 15.0126 16.7803 14.7197L14.0607 12L16.7803 9.28033C17.0732 8.98744 17.0732 8.51256 16.7803 8.21967C16.4874 7.92678 16.0126 7.92678 15.7197 8.21967L13 10.9393L10.2803 8.21967Z" fill="black"/>
</g>
<defs>
<filter id="filter0_d_45_13817" x="-3" y="0" width="32" height="32" filterUnits="userSpaceOnUse" color-interpolation-filters="sRGB">
<feFlood flood-opacity="0" result="BackgroundImageFix"/>
<feColorMatrix in="SourceAlpha" type="matrix" values="0 0 0 0 0 0 0 0 0 0 0 0 0 0 0 0 0 0 127 0" result="hardAlpha"/>
<feOffset dy="4"/>
<feGaussianBlur stdDeviation="2"/>
<feComposite in2="hardAlpha" operator="out"/>
<feColorMatrix type="matrix" values="0 0 0 0 0 0 0 0 0 0 0 0 0 0 0 0 0 0 0.25 0"/>
<feBlend mode="normal" in2="BackgroundImageFix" result="effect1_dropShadow_45_13817"/>
<feBlend mode="normal" in="SourceGraphic" in2="effect1_dropShadow_45_13817" result="shape"/>
</filter>
</defs>
</svg>
