<svg width="22" height="23" viewBox="0 0 22 23" fill="none" xmlns="http://www.w3.org/2000/svg">
<g filter="url(#filter0_d_2013_40467)">
<path d="M9.28033 5.21967C8.98744 4.92678 8.51256 4.92678 8.21967 5.21967C7.92678 5.51256 7.92678 5.98744 8.21967 6.28033L9.93934 8L8.21967 9.71967C7.92678 10.0126 7.92678 10.4874 8.21967 10.7803C8.51256 11.0732 8.98744 11.0732 9.28033 10.7803L11 9.06066L12.7197 10.7803C13.0126 11.0732 13.4874 11.0732 13.7803 10.7803C14.0732 10.4874 14.0732 10.0126 13.7803 9.71967L12.0607 8L13.7803 6.28033C14.0732 5.98744 14.0732 5.51256 13.7803 5.21967C13.4874 4.92678 13.0126 4.92678 12.7197 5.21967L11 6.93934L9.28033 5.21967Z" fill="black"/>
<path fill-rule="evenodd" clip-rule="evenodd" d="M18 8C18 11.866 14.866 15 11 15C7.13401 15 4 11.866 4 8C4 4.13401 7.13401 1 11 1C14.866 1 18 4.13401 18 8ZM16.5 8C16.5 11.0376 14.0376 13.5 11 13.5C7.96243 13.5 5.5 11.0376 5.5 8C5.5 4.96243 7.96243 2.5 11 2.5C14.0376 2.5 16.5 4.96243 16.5 8Z" fill="black"/>
</g>
<defs>
<filter id="filter0_d_2013_40467" x="-1" y="0" width="24" height="24" filterUnits="userSpaceOnUse" color-interpolation-filters="sRGB">
<feFlood flood-opacity="0" result="BackgroundImageFix"/>
<feColorMatrix in="SourceAlpha" type="matrix" values="0 0 0 0 0 0 0 0 0 0 0 0 0 0 0 0 0 0 127 0" result="hardAlpha"/>
<feOffset dy="4"/>
<feGaussianBlur stdDeviation="2"/>
<feComposite in2="hardAlpha" operator="out"/>
<feColorMatrix type="matrix" values="0 0 0 0 0 0 0 0 0 0 0 0 0 0 0 0 0 0 0.25 0"/>
<feBlend mode="normal" in2="BackgroundImageFix" result="effect1_dropShadow_2013_40467"/>
<feBlend mode="normal" in="SourceGraphic" in2="effect1_dropShadow_2013_40467" result="shape"/>
</filter>
</defs>
</svg>
